<svg width="146" height="146" viewBox="0 0 146 146" fill="none" xmlns="http://www.w3.org/2000/svg">
<g filter="url(#filter0_d_20_17)">
<path d="M91.2392 65.896C96.1472 77.1705 90.9769 90.2697 79.7176 95.1678C68.4688 100.084 55.3397 94.9 50.4547 83.6464C45.5428 72.3783 50.7093 59.2628 61.9631 54.3689C73.2353 49.4714 86.3424 54.6269 91.2443 65.9026L91.2392 65.896ZM76.6925 66.2777C75.247 63.6702 72.4899 63.7787 69.3898 64.8062L67.753 61.0287L65.4404 62.027L67.0534 65.7209C66.4453 65.9772 65.8299 66.2672 65.208 66.5534L63.5751 62.8291L61.262 63.8382L62.9118 67.6302C62.4171 67.8538 61.9355 68.0692 61.4516 68.2862L58.2736 69.6646L59.3489 72.1372C59.3489 72.1372 61.0373 71.3604 61.0155 71.4051C61.9594 71.0016 62.4929 71.4021 62.7893 71.8339L67.3023 82.2123C67.3794 82.5389 67.4058 83.085 66.754 83.3643C66.7928 83.3783 65.0722 84.0993 65.0722 84.0993L65.8025 87.0611L68.8002 85.7562L70.4408 85.0634L72.1172 88.9016L74.426 87.887L72.7767 84.0841C73.4204 83.8286 74.0265 83.572 74.625 83.3056L76.3087 87.0435L78.6257 86.0419L76.951 82.2059C80.7291 80.3004 83.0231 78.1471 81.7759 74.3564C80.7658 71.3042 78.8179 70.6006 76.381 71.0279C77.4123 69.7788 77.7274 68.2133 76.6726 66.293L76.6925 66.2777ZM77.0289 75.8904C78.2895 78.7574 73.2328 80.5572 71.6661 81.2389L69.4565 76.16C71.0328 75.4885 75.7367 72.9092 77.0289 75.8904ZM72.844 69.1858C73.981 71.8004 69.7625 73.276 68.4521 73.8416L66.4379 69.216C67.7315 68.6422 71.6413 66.4445 72.8389 69.1792L72.844 69.1858Z" fill="url(#paint0_linear_20_17)" shape-rendering="crispEdges"/>
</g>
<defs>
<filter id="filter0_d_20_17" x="0.596924" y="0.518066" width="144.497" height="144.507" filterUnits="userSpaceOnUse" color-interpolation-filters="sRGB">
<feFlood flood-opacity="0" result="BackgroundImageFix"/>
<feColorMatrix in="SourceAlpha" type="matrix" values="0 0 0 0 0 0 0 0 0 0 0 0 0 0 0 0 0 0 127 0" result="hardAlpha"/>
<feOffset dx="2" dy="-2"/>
<feGaussianBlur stdDeviation="25"/>
<feComposite in2="hardAlpha" operator="out"/>
<feColorMatrix type="matrix" values="0 0 0 0 0.0174376 0 0 0 0 0.41137 0 0 0 0 0.775 0 0 0 0.35 0"/>
<feBlend mode="normal" in2="BackgroundImageFix" result="effect1_dropShadow_20_17"/>
<feBlend mode="normal" in="SourceGraphic" in2="effect1_dropShadow_20_17" result="shape"/>
</filter>
<linearGradient id="paint0_linear_20_17" x1="57.2951" y1="57.1137" x2="84.3917" y2="92.4195" gradientUnits="userSpaceOnUse">
<stop stop-color="#BA45E3"/>
<stop offset="1" stop-color="#BA45E3" stop-opacity="0"/>
</linearGradient>
</defs>
</svg>
