<svg width="146" height="146" viewBox="0 0 146 146" fill="none" xmlns="http://www.w3.org/2000/svg">
<g filter="url(#filter0_d_20_23)">
<path fill-rule="evenodd" clip-rule="evenodd" d="M59.4476 69.0097L66.351 80.951L65.1402 83.7321L67.1029 87.1346L68.4432 84.4188L72.664 91.3222L87.2227 76.8287L84.5401 72.379L75.7066 81.2126L72.5651 75.782L73.9395 72.3795L72.0099 69.0744L70.4723 72.1823L65.3033 63.3487L59.4476 69.0097ZM55.0637 59.0637C63.9299 50.1976 78.3249 50.1976 87.1911 59.0637C96.0572 67.9299 96.0572 82.325 87.1911 91.1911C78.3249 100.057 63.9299 100.057 55.0637 91.1911C46.2302 82.2924 46.1975 67.9299 55.0637 59.0637Z" fill="url(#paint0_linear_20_23)"/>
</g>
<defs>
<filter id="filter0_d_20_23" x="0.4263" y="0.414062" width="145.414" height="145.427" filterUnits="userSpaceOnUse" color-interpolation-filters="sRGB">
<feFlood flood-opacity="0" result="BackgroundImageFix"/>
<feColorMatrix in="SourceAlpha" type="matrix" values="0 0 0 0 0 0 0 0 0 0 0 0 0 0 0 0 0 0 127 0" result="hardAlpha"/>
<feOffset dx="2" dy="-2"/>
<feGaussianBlur stdDeviation="25"/>
<feComposite in2="hardAlpha" operator="out"/>
<feColorMatrix type="matrix" values="0 0 0 0 0.0174376 0 0 0 0 0.41137 0 0 0 0 0.775 0 0 0 0.35 0"/>
<feBlend mode="normal" in2="BackgroundImageFix" result="effect1_dropShadow_20_23"/>
<feBlend mode="normal" in="SourceGraphic" in2="effect1_dropShadow_20_23" result="shape"/>
</filter>
<linearGradient id="paint0_linear_20_23" x1="55.0637" y1="59.0637" x2="87.1911" y2="91.1911" gradientUnits="userSpaceOnUse">
<stop stop-color="#BA45E3"/>
<stop offset="1" stop-color="#701292"/>
</linearGradient>
</defs>
</svg>
