<svg width="151" height="151" viewBox="0 0 151 151" fill="none" xmlns="http://www.w3.org/2000/svg">
<g filter="url(#filter0_d_20_7)">
<path d="M88.0039 97.342C76.874 105.526 61.234 103.121 53.0624 92.0044C44.8733 80.9035 47.2822 65.2284 58.395 57.0751C69.5169 48.8888 85.1738 51.2849 93.3395 62.3969C101.514 73.5281 99.1307 89.172 87.9979 97.3493L88.0039 97.342ZM83.9615 81.4991C86.4583 79.2663 85.6525 76.2726 83.7543 73.1317L87.4852 70.3982L85.8154 68.1128L82.17 70.7996C81.7377 70.1972 81.2666 69.595 80.7981 68.9849L84.4718 66.2688L82.79 63.9857L79.0463 66.7371C78.6781 66.2508 78.3221 65.7767 77.9638 65.3006L75.6618 62.1617L73.2207 63.9553C73.2207 63.9553 74.4924 65.6118 74.438 65.5991C75.1153 66.5328 74.8094 67.217 74.4101 67.6492L64.1636 75.1771C63.825 75.3428 63.2333 75.5077 62.7649 74.8631C62.7592 74.9091 61.5406 73.2033 61.5406 73.2033L58.4775 74.7407L60.654 77.7003L61.8218 79.3254L58.0342 82.1175L59.721 84.3946L63.4767 81.641C63.9171 82.2826 64.3491 82.8828 64.7902 83.4722L61.1142 86.2473L62.7889 88.5366L66.5745 85.747C69.6035 89.4121 72.5343 91.3895 76.3767 89.0795C79.4692 87.2132 79.7548 84.9038 78.6794 82.3402C80.3049 83.1592 82.0987 83.1148 83.9398 81.4811L83.9615 81.4991ZM73.5133 84.2604C70.6863 86.3551 67.4545 81.2628 66.3173 79.7159L71.3314 76.0309C72.4598 77.5908 76.4577 82.1026 73.5133 84.2604ZM79.8165 78.0064C77.2352 79.903 74.5674 75.6483 73.6212 74.3534L78.1874 70.9951C79.1384 72.2697 82.5203 76.0063 79.8225 77.9992L79.8165 78.0064Z" fill="url(#paint0_linear_20_7)" shape-rendering="crispEdges"/>
</g>
<defs>
<filter id="filter0_d_20_7" x="0.201263" y="0.21167" width="149.995" height="149.989" filterUnits="userSpaceOnUse" color-interpolation-filters="sRGB">
<feFlood flood-opacity="0" result="BackgroundImageFix"/>
<feColorMatrix in="SourceAlpha" type="matrix" values="0 0 0 0 0 0 0 0 0 0 0 0 0 0 0 0 0 0 127 0" result="hardAlpha"/>
<feOffset dx="2" dy="-2"/>
<feGaussianBlur stdDeviation="25"/>
<feComposite in2="hardAlpha" operator="out"/>
<feColorMatrix type="matrix" values="0 0 0 0 0.0174376 0 0 0 0 0.41137 0 0 0 0 0.775 0 0 0 0.35 0"/>
<feBlend mode="normal" in2="BackgroundImageFix" result="effect1_dropShadow_20_7"/>
<feBlend mode="normal" in="SourceGraphic" in2="effect1_dropShadow_20_7" result="shape"/>
</filter>
<linearGradient id="paint0_linear_20_7" x1="67.766" y1="63.302" x2="86.266" y2="106.302" gradientUnits="userSpaceOnUse">
<stop stop-color="#BA45E3"/>
<stop offset="1" stop-color="#BA45E3" stop-opacity="0"/>
</linearGradient>
</defs>
</svg>
