<svg width="165" height="165" viewBox="0 0 165 165" fill="none" xmlns="http://www.w3.org/2000/svg">
<g filter="url(#filter0_d_20_13)">
<path fill-rule="evenodd" clip-rule="evenodd" d="M63.8026 75.6374L73.5267 92.458L71.8212 96.3754L74.586 101.168L76.4739 97.3427L82.4193 107.067L102.927 86.6513L99.148 80.3835L86.7051 92.8264L82.28 85.177L84.216 80.3842L81.4979 75.7286L79.3321 80.1063L72.051 67.6633L63.8026 75.6374ZM57.6274 61.6275C70.1163 49.1385 90.3933 49.1385 102.882 61.6275C115.371 74.1164 115.371 94.3934 102.882 106.882C90.3933 119.371 70.1163 119.371 57.6274 106.882C45.1845 94.3474 45.1385 74.1164 57.6274 61.6275Z" fill="url(#paint0_linear_20_13)"/>
</g>
<defs>
<filter id="filter0_d_20_13" x="0.277954" y="0.260742" width="163.971" height="163.988" filterUnits="userSpaceOnUse" color-interpolation-filters="sRGB">
<feFlood flood-opacity="0" result="BackgroundImageFix"/>
<feColorMatrix in="SourceAlpha" type="matrix" values="0 0 0 0 0 0 0 0 0 0 0 0 0 0 0 0 0 0 127 0" result="hardAlpha"/>
<feOffset dx="2" dy="-2"/>
<feGaussianBlur stdDeviation="25"/>
<feComposite in2="hardAlpha" operator="out"/>
<feColorMatrix type="matrix" values="0 0 0 0 0.0174376 0 0 0 0 0.41137 0 0 0 0 0.775 0 0 0 0.35 0"/>
<feBlend mode="normal" in2="BackgroundImageFix" result="effect1_dropShadow_20_13"/>
<feBlend mode="normal" in="SourceGraphic" in2="effect1_dropShadow_20_13" result="shape"/>
</filter>
<linearGradient id="paint0_linear_20_13" x1="57.6274" y1="61.6275" x2="102.882" y2="106.882" gradientUnits="userSpaceOnUse">
<stop stop-color="#BA45E3"/>
<stop offset="1" stop-color="#701292"/>
</linearGradient>
</defs>
</svg>
