<svg width="215" height="215" viewBox="0 0 215 215" fill="none" xmlns="http://www.w3.org/2000/svg">
<g filter="url(#filter0_d_20_16)">
<path d="M161.275 123.404C153.597 154.236 122.384 172.953 91.5922 165.28C60.793 157.661 42.0323 126.379 49.7249 95.6262C57.3852 64.8011 88.6158 46.0444 119.39 53.7175C150.207 61.4121 168.968 92.6002 161.275 123.425V123.404ZM130.85 101.301C131.989 93.6819 126.166 89.5669 118.193 86.796L120.781 76.4778L114.469 74.8857L111.963 84.9954C110.313 84.5641 108.595 84.1904 106.87 83.7986L109.382 73.5955L103.052 72.0249L100.467 82.3934C99.1015 82.0735 97.7751 81.7573 96.4414 81.441L87.7567 79.2667L86.0708 86.0269C86.0708 86.0269 90.7546 87.0907 90.6396 87.1482C93.2098 87.8059 93.6735 89.4662 93.6016 90.8176L86.5237 119.192C86.1678 119.982 85.3626 121.143 83.5868 120.69C83.6444 120.78 78.9821 119.551 78.9821 119.551L75.8187 126.771L84.0182 128.813L88.472 129.973L85.8695 140.478L92.1997 142.031L94.8023 131.641C96.5241 132.13 98.1705 132.557 99.8168 132.953L97.3868 143.264L103.713 144.856L106.316 134.358C117.061 136.396 125.152 135.591 128.56 125.858C131.292 118.013 128.405 113.506 122.737 110.548C126.816 109.61 129.926 106.897 130.785 101.301H130.85ZM116.413 121.535C114.487 129.395 101.287 125.129 97.0022 124.061L100.464 110.174C104.752 111.278 118.455 113.391 116.413 121.535ZM118.383 101.208C116.6 108.356 105.629 104.744 102.053 103.842L105.202 91.1913C108.757 92.0503 120.231 93.6963 118.383 101.186V101.208Z" fill="url(#paint0_linear_20_16)"/>
</g>
<defs>
<filter id="filter0_d_20_16" x="0" y="0" width="215" height="215" filterUnits="userSpaceOnUse" color-interpolation-filters="sRGB">
<feFlood flood-opacity="0" result="BackgroundImageFix"/>
<feColorMatrix in="SourceAlpha" type="matrix" values="0 0 0 0 0 0 0 0 0 0 0 0 0 0 0 0 0 0 127 0" result="hardAlpha"/>
<feOffset dx="2" dy="-2"/>
<feGaussianBlur stdDeviation="25"/>
<feComposite in2="hardAlpha" operator="out"/>
<feColorMatrix type="matrix" values="0 0 0 0 0.0174376 0 0 0 0 0.41137 0 0 0 0 0.775 0 0 0 0.35 0"/>
<feBlend mode="normal" in2="BackgroundImageFix" result="effect1_dropShadow_20_16"/>
<feBlend mode="normal" in="SourceGraphic" in2="effect1_dropShadow_20_16" result="shape"/>
</filter>
<linearGradient id="paint0_linear_20_16" x1="105.5" y1="52" x2="106" y2="145" gradientUnits="userSpaceOnUse">
<stop stop-color="#BA45E3"/>
<stop offset="1" stop-color="#701292"/>
</linearGradient>
</defs>
</svg>
