<svg width="250" height="250" viewBox="0 0 250 250" fill="none" xmlns="http://www.w3.org/2000/svg">
<g clip-path="url(#clip0_14_323)">
<path fill-rule="evenodd" clip-rule="evenodd" d="M210.714 156.962C214.231 147.189 216.152 136.628 216.152 125.591C216.152 79.0774 182.033 41.0388 138.125 34.6368L124.596 10.8983L110.453 34.8558C67.2328 41.8631 33.848 79.5804 33.848 125.591C33.848 136.389 35.6868 146.73 39.0599 156.325L23.4317 183.745L54.2202 183.512C69.4264 202.36 91.8747 214.976 117.151 217.157L104.229 249.456C45.0793 239.517 0 187.843 0 125.591C0 56.229 55.9644 0 125 0C194.036 0 250 56.229 250 125.591C250 188.429 204.068 240.488 144.097 249.726L131.121 217.29C157.099 215.546 180.224 202.791 195.776 183.517L225.979 183.745L210.714 156.962Z" fill="url(#paint0_linear_14_323)"/>
<path fill-rule="evenodd" clip-rule="evenodd" d="M124.406 35.4609L204.889 172.429H202.952L141.852 152.849L137.077 133.452C136.914 132.791 135.943 132.883 135.907 133.563L134.958 151.762L124.109 172.577L113.463 152.152L112.493 133.563C112.458 132.883 111.486 132.791 111.324 133.452L106.565 152.785L45.2669 172.429H43.9234L124.406 35.4609ZM123.474 54.9475C124.162 54.2951 125.244 54.2951 125.932 54.9475L134.436 63.01C134.789 63.3451 134.989 63.809 134.989 64.2937V82.2783C134.989 82.7629 134.789 83.2269 134.436 83.562L129.2 88.5265L124.995 57.0124C124.904 56.3281 123.909 56.3281 123.818 57.0124L119.679 88.0265L114.97 83.562C114.618 83.2269 114.418 82.7629 114.418 82.2783V64.2937C114.418 63.809 114.618 63.3451 114.97 63.01L123.474 54.9475Z" fill="url(#paint1_linear_14_323)"/>
</g>
<defs>
<linearGradient id="paint0_linear_14_323" x1="125" y1="0" x2="125" y2="249.726" gradientUnits="userSpaceOnUse">
<stop stop-color="#BA45E3"/>
<stop offset="1" stop-color="#BA45E3" stop-opacity="0"/>
</linearGradient>
<linearGradient id="paint1_linear_14_323" x1="124.406" y1="35.4609" x2="124.406" y2="172.577" gradientUnits="userSpaceOnUse">
<stop stop-color="#BA45E3"/>
<stop offset="1" stop-color="#BA45E3" stop-opacity="0"/>
</linearGradient>
<clipPath id="clip0_14_323">
<rect width="250" height="250" fill="white"/>
</clipPath>
</defs>
</svg>
