<svg width="300" height="300" viewBox="0 0 300 300" fill="none" xmlns="http://www.w3.org/2000/svg">
<path d="M218.563 237.312C229.177 237.312 237.781 228.708 237.781 218.094C237.781 207.48 229.177 198.875 218.563 198.875C207.948 198.875 199.344 207.48 199.344 218.094C199.344 228.708 207.948 237.312 218.563 237.312Z" stroke="url(#paint0_linear_13_291)" stroke-width="4" stroke-linecap="round" stroke-linejoin="round"/>
<path d="M83.0937 101.656C93.708 101.656 102.312 93.0517 102.312 82.4375C102.312 71.8233 93.708 63.2188 83.0937 63.2188C72.4795 63.2188 63.875 71.8233 63.875 82.4375C63.875 93.0517 72.4795 101.656 83.0937 101.656Z" stroke="url(#paint1_linear_13_291)" stroke-width="4" stroke-linecap="round" stroke-linejoin="round"/>
<path d="M150.828 205.156C181.014 205.156 205.484 180.686 205.484 150.5C205.484 120.314 181.014 95.8438 150.828 95.8438C120.642 95.8438 96.1719 120.314 96.1719 150.5C96.1719 180.686 120.642 205.156 150.828 205.156Z" stroke="url(#paint2_linear_13_291)" stroke-width="4" stroke-linecap="round" stroke-linejoin="round"/>
<path d="M150.828 205.156C163.617 205.156 173.984 180.686 173.984 150.5C173.984 120.314 163.617 95.8438 150.828 95.8438C138.039 95.8438 127.672 120.314 127.672 150.5C127.672 180.686 138.039 205.156 150.828 205.156Z" stroke="url(#paint3_linear_13_291)" stroke-width="4" stroke-linecap="round" stroke-linejoin="round"/>
<path d="M150.828 176.984C181.014 176.984 205.484 165.127 205.484 150.5C205.484 135.873 181.014 124.016 150.828 124.016C120.642 124.016 96.1719 135.873 96.1719 150.5C96.1719 165.127 120.642 176.984 150.828 176.984Z" stroke="url(#paint4_linear_13_291)" stroke-width="4" stroke-linecap="round" stroke-linejoin="round"/>
<path d="M150.828 95.8438V204.031" stroke="url(#paint5_linear_13_291)" stroke-width="4" stroke-linecap="round" stroke-linejoin="round"/>
<path d="M155.516 204.031H148.203" stroke="url(#paint6_linear_13_291)" stroke-width="4" stroke-linecap="round" stroke-linejoin="round"/>
<path d="M236.562 112.578C241.742 124.277 244.472 136.912 244.585 149.706C244.698 162.499 242.191 175.18 237.219 186.969" stroke="url(#paint7_linear_13_291)" stroke-width="4" stroke-linecap="round" stroke-linejoin="round"/>
<path d="M117.125 62.9844C138.831 54.6155 162.873 54.6155 184.578 62.9844" stroke="url(#paint8_linear_13_291)" stroke-width="4" stroke-linecap="round" stroke-linejoin="round"/>
<path d="M64.4375 186.922C59.465 175.134 56.958 162.452 57.0709 149.659C57.1838 136.865 59.9141 124.23 65.0937 112.531" stroke="url(#paint9_linear_13_291)" stroke-width="4" stroke-linecap="round" stroke-linejoin="round"/>
<path d="M184.625 237.547C173.926 242.032 162.428 244.296 150.828 244.203C139.32 244.228 127.907 242.114 117.172 237.969" stroke="url(#paint10_linear_13_291)" stroke-width="4" stroke-linecap="round" stroke-linejoin="round"/>
<path d="M188.281 73.6719C188.281 64.2111 192.04 55.1378 198.729 48.448C205.419 41.7583 214.492 38 223.953 38C233.414 38 242.487 41.7583 249.177 48.448C255.867 55.1378 259.625 64.2111 259.625 73.6719" stroke="url(#paint11_linear_13_291)" stroke-width="4" stroke-linecap="round" stroke-linejoin="round"/>
<path d="M259.625 73.6719C259.625 83.1326 255.867 92.2059 249.177 98.8957C242.487 105.585 233.414 109.344 223.953 109.344C214.492 109.344 205.419 105.585 198.729 98.8957C192.04 92.2059 188.281 83.1326 188.281 73.6719" stroke="url(#paint12_linear_13_291)" stroke-width="4" stroke-linecap="round" stroke-linejoin="round"/>
<path d="M223.953 73.6719C222.429 73.6718 220.939 73.2184 219.673 72.3695C218.406 71.5206 217.421 70.3144 216.842 68.9042C216.263 67.494 216.117 65.9435 216.421 64.4498C216.725 62.9561 217.467 61.5865 218.551 60.5152C219.636 59.444 221.014 58.7193 222.512 58.4333C224.009 58.1474 225.558 58.3131 226.96 58.9093C228.363 59.5056 229.557 60.5055 230.391 61.7819C231.224 63.0584 231.659 64.5538 231.641 66.0781" stroke="url(#paint13_linear_13_291)" stroke-width="4" stroke-linecap="round" stroke-linejoin="round"/>
<path d="M223.953 89.0469C221.914 89.0469 219.959 88.2369 218.517 86.7953C217.076 85.3536 216.266 83.3982 216.266 81.3594" stroke="url(#paint14_linear_13_291)" stroke-width="4" stroke-linecap="round" stroke-linejoin="round"/>
<path d="M223.953 73.6719C225.992 73.6719 227.947 74.4818 229.389 75.9235C230.831 77.3652 231.641 79.3205 231.641 81.3594C231.641 83.3982 230.831 85.3536 229.389 86.7953C227.947 88.2369 225.992 89.0469 223.953 89.0469" stroke="url(#paint15_linear_13_291)" stroke-width="4" stroke-linecap="round" stroke-linejoin="round"/>
<path d="M223.953 58.2969V51.4531" stroke="url(#paint16_linear_13_291)" stroke-width="4" stroke-linecap="round" stroke-linejoin="round"/>
<path d="M41.0468 227.234C41.0468 217.774 44.8051 208.7 51.4949 202.011C58.1846 195.321 67.2579 191.562 76.7187 191.562C86.1795 191.562 95.2527 195.321 101.943 202.011C108.632 208.7 112.391 217.774 112.391 227.234" stroke="url(#paint17_linear_13_291)" stroke-width="4" stroke-linecap="round" stroke-linejoin="round"/>
<path d="M112.344 227.234C112.344 236.695 108.585 245.768 101.896 252.458C95.2059 259.148 86.1326 262.906 76.6719 262.906C67.2111 262.906 58.1378 259.148 51.4481 252.458C44.7583 245.768 41 236.695 41 227.234" stroke="url(#paint18_linear_13_291)" stroke-width="4" stroke-linecap="round" stroke-linejoin="round"/>
<path d="M223.953 95.8438V89.0469" stroke="url(#paint19_linear_13_291)" stroke-width="4" stroke-linecap="round" stroke-linejoin="round"/>
<path d="M67.4844 210.125H78.4531C79.2531 210.127 80.0465 210.269 80.7969 210.547C82.0168 210.968 83.0983 211.715 83.9245 212.706C84.7507 213.698 85.2901 214.896 85.4844 216.172C85.6416 216.898 85.6416 217.649 85.4844 218.375C85.2901 219.651 84.7507 220.849 83.9245 221.841C83.0983 222.832 82.0168 223.579 80.7969 224C80.0465 224.277 79.2531 224.42 78.4531 224.422H71.4219" stroke="#BA45E3" stroke-width="4" stroke-linecap="round" stroke-linejoin="round"/>
<path d="M67.4844 243.078H79.2031C79.7485 243.135 80.2984 243.135 80.8437 243.078C82.6059 242.785 84.2392 241.968 85.5312 240.734L85.8125 240.5L86.1875 240.125C86.5594 239.722 86.8892 239.282 87.1719 238.812L87.5 238.344C88.172 237.005 88.525 235.529 88.5312 234.031C88.5278 232.378 88.0741 230.758 87.2188 229.344C86.7857 228.628 86.2486 227.98 85.625 227.422C84.3329 226.188 82.6997 225.371 80.9375 225.078C80.3921 225.021 79.8422 225.021 79.2969 225.078H71.4687" stroke="#BA45E3" stroke-width="4" stroke-linecap="round" stroke-linejoin="round"/>
<path d="M78.5 210.125H71.75H67.4844H65.2812" stroke="#BA45E3" stroke-width="4" stroke-linecap="round" stroke-linejoin="round"/>
<path d="M65.3281 243.078H71.4687" stroke="#BA45E3" stroke-width="4" stroke-linecap="round" stroke-linejoin="round"/>
<path d="M71.4688 214.625V248.469" stroke="#BA45E3" stroke-width="4" stroke-linecap="round" stroke-linejoin="round"/>
<path d="M80.8438 248.422V242.938" stroke="#BA45E3" stroke-width="4" stroke-linecap="round" stroke-linejoin="round"/>
<path d="M80.8438 210.547V205.25" stroke="#BA45E3" stroke-width="4" stroke-linecap="round" stroke-linejoin="round"/>
<defs>
<linearGradient id="paint0_linear_13_291" x1="218.563" y1="198.875" x2="218.563" y2="237.312" gradientUnits="userSpaceOnUse">
<stop stop-color="#BA45E3"/>
<stop offset="1" stop-color="#BA45E3" stop-opacity="0"/>
</linearGradient>
<linearGradient id="paint1_linear_13_291" x1="83.0938" y1="63.2188" x2="83.0938" y2="101.656" gradientUnits="userSpaceOnUse">
<stop stop-color="#BA45E3"/>
<stop offset="1" stop-color="#BA45E3" stop-opacity="0"/>
</linearGradient>
<linearGradient id="paint2_linear_13_291" x1="150.828" y1="95.8438" x2="150.828" y2="205.156" gradientUnits="userSpaceOnUse">
<stop stop-color="#BA45E3"/>
<stop offset="1" stop-color="#BA45E3" stop-opacity="0"/>
</linearGradient>
<linearGradient id="paint3_linear_13_291" x1="150.828" y1="95.8438" x2="150.828" y2="205.156" gradientUnits="userSpaceOnUse">
<stop stop-color="#BA45E3"/>
<stop offset="1" stop-color="#BA45E3" stop-opacity="0"/>
</linearGradient>
<linearGradient id="paint4_linear_13_291" x1="150.828" y1="124.016" x2="150.828" y2="176.984" gradientUnits="userSpaceOnUse">
<stop stop-color="#BA45E3"/>
<stop offset="1" stop-color="#BA45E3" stop-opacity="0"/>
</linearGradient>
<linearGradient id="paint5_linear_13_291" x1="151.328" y1="95.8438" x2="151.328" y2="204.031" gradientUnits="userSpaceOnUse">
<stop stop-color="#BA45E3"/>
<stop offset="1" stop-color="#BA45E3" stop-opacity="0"/>
</linearGradient>
<linearGradient id="paint6_linear_13_291" x1="151.859" y1="204.031" x2="151.859" y2="205.031" gradientUnits="userSpaceOnUse">
<stop stop-color="#BA45E3"/>
<stop offset="1" stop-color="#BA45E3" stop-opacity="0"/>
</linearGradient>
<linearGradient id="paint7_linear_13_291" x1="240.576" y1="112.578" x2="240.576" y2="186.969" gradientUnits="userSpaceOnUse">
<stop stop-color="#BA45E3"/>
<stop offset="1" stop-color="#BA45E3" stop-opacity="0"/>
</linearGradient>
<linearGradient id="paint8_linear_13_291" x1="150.852" y1="56.7078" x2="150.852" y2="62.9844" gradientUnits="userSpaceOnUse">
<stop stop-color="#BA45E3"/>
<stop offset="1" stop-color="#BA45E3" stop-opacity="0"/>
</linearGradient>
<linearGradient id="paint9_linear_13_291" x1="61.0805" y1="112.531" x2="61.0805" y2="186.922" gradientUnits="userSpaceOnUse">
<stop stop-color="#BA45E3"/>
<stop offset="1" stop-color="#BA45E3" stop-opacity="0"/>
</linearGradient>
<linearGradient id="paint10_linear_13_291" x1="150.898" y1="237.547" x2="150.898" y2="244.206" gradientUnits="userSpaceOnUse">
<stop stop-color="#BA45E3"/>
<stop offset="1" stop-color="#BA45E3" stop-opacity="0"/>
</linearGradient>
<linearGradient id="paint11_linear_13_291" x1="223.953" y1="38" x2="223.953" y2="73.6719" gradientUnits="userSpaceOnUse">
<stop stop-color="#BA45E3"/>
<stop offset="1" stop-color="#BA45E3" stop-opacity="0"/>
</linearGradient>
<linearGradient id="paint12_linear_13_291" x1="223.953" y1="73.6719" x2="223.953" y2="109.344" gradientUnits="userSpaceOnUse">
<stop stop-color="#BA45E3"/>
<stop offset="1" stop-color="#BA45E3" stop-opacity="0"/>
</linearGradient>
<linearGradient id="paint13_linear_13_291" x1="223.954" y1="58.2969" x2="223.954" y2="73.6719" gradientUnits="userSpaceOnUse">
<stop stop-color="#BA45E3"/>
<stop offset="1" stop-color="#BA45E3"/>
</linearGradient>
<linearGradient id="paint14_linear_13_291" x1="220.109" y1="81.3594" x2="220.109" y2="89.0469" gradientUnits="userSpaceOnUse">
<stop stop-color="#BA45E3"/>
<stop offset="1" stop-color="#BA45E3"/>
</linearGradient>
<linearGradient id="paint15_linear_13_291" x1="227.797" y1="73.6719" x2="227.797" y2="89.0469" gradientUnits="userSpaceOnUse">
<stop stop-color="#BA45E3"/>
<stop offset="1" stop-color="#BA45E3"/>
</linearGradient>
<linearGradient id="paint16_linear_13_291" x1="224.453" y1="51.4531" x2="224.453" y2="58.2969" gradientUnits="userSpaceOnUse">
<stop stop-color="#BA45E3"/>
<stop offset="1" stop-color="#BA45E3"/>
</linearGradient>
<linearGradient id="paint17_linear_13_291" x1="76.7187" y1="191.562" x2="76.7187" y2="227.234" gradientUnits="userSpaceOnUse">
<stop stop-color="#BA45E3"/>
<stop offset="1" stop-color="#BA45E3" stop-opacity="0"/>
</linearGradient>
<linearGradient id="paint18_linear_13_291" x1="76.6719" y1="227.234" x2="76.6719" y2="262.906" gradientUnits="userSpaceOnUse">
<stop stop-color="#BA45E3"/>
<stop offset="1" stop-color="#BA45E3" stop-opacity="0"/>
</linearGradient>
<linearGradient id="paint19_linear_13_291" x1="224.453" y1="89.0469" x2="224.453" y2="95.8438" gradientUnits="userSpaceOnUse">
<stop stop-color="#BA45E3"/>
<stop offset="1" stop-color="#BA45E3"/>
</linearGradient>
</defs>
</svg>
