<svg width="250" height="250" viewBox="0 0 250 250" fill="none" xmlns="http://www.w3.org/2000/svg">
<path d="M85.0937 92.125C92.2604 113.062 105.74 128.979 124.927 128.979C143.396 128.979 157.083 113.292 164.479 92.3854C179.406 77.3333 175.875 66.0833 172.438 60.7083C180.542 21.8958 155.76 0 123.521 0C65.7083 0 75.7917 63.3333 75.7917 63.3333C75.8542 63.3437 75.9167 63.3437 75.9896 63.3542C73.3542 69.3125 72.5625 79.3333 85.0937 92.125ZM109.24 45.1042L105.021 60.8229C125.656 54.5312 128.427 51.0729 131.677 48.7083C135.052 46.2604 137.896 43.7708 140.219 41.5104C141.292 43.4271 142.625 45.1771 144.156 46.7604C145.688 48.3646 147.958 32.2083 147.958 32.2083C147.958 32.2083 153.656 42.0208 154.448 45.1979C155.01 47.4479 158.615 56.5521 160.552 57.3854C159.823 87.4375 146.344 118.844 124.927 118.844C104.979 118.844 91.9167 91.6042 89.625 63.5833C95.1042 63.25 109.24 45.1042 109.24 45.1042Z" fill="url(#paint0_linear_14_326)"/>
<path d="M145.135 209.469V215.531C146.135 215.594 147.927 215.698 150.333 215.698C157.469 215.698 169.802 214.844 181.833 210.021V203.698C165.906 211.896 145.458 209.5 145.135 209.469Z" fill="url(#paint1_linear_14_326)"/>
<path d="M228.646 177.052C216.656 145.51 189.281 132.49 188.917 132.312L158.594 121.219L145.229 153.687L131.552 137.042H118.281L104.604 153.687L91.2396 121.219L61.4583 132.167L61.0937 132.323C60.7187 132.49 33.3333 145.51 21.3542 177.052C18.9167 183.469 17.1042 190.677 16.3125 198.687C19.3542 202.375 22.6042 205.906 26 209.292C29.6458 212.885 33.4896 216.271 37.5 219.458C61.4896 238.542 91.8542 249.979 124.906 250C124.979 250 125.042 250 125.115 250C127.479 250 129.812 249.938 132.156 249.812C132.198 249.812 132.26 249.812 132.312 249.812C162.562 248.271 190.26 237.135 212.521 219.438C216.531 216.26 220.375 212.875 224.01 209.281C227.417 205.906 230.656 202.375 233.708 198.677C232.885 190.677 231.094 183.479 228.646 177.052ZM199.958 207.823C200.271 197.323 200.385 183.937 199.552 172.031L189.438 172.729C190.458 187.281 190.031 204.229 189.562 214.958C173.302 224.906 154.573 231.177 134.49 232.698L130.687 166.052H119.156L115.354 232.698C95.3542 231.156 76.6979 224.885 60.4792 214.979C59.9688 204.458 59.4792 187.802 60.4375 173.052L50.3229 172.396C49.5521 184.385 49.6875 197.521 50.0417 207.844C42.1042 201.802 34.9271 194.823 28.6562 187.073C37.0833 155.833 62.5521 142.844 65.1562 141.594L85.5833 134.094L101.687 173.198L115.333 156.604L118.792 161.521H131.073L134.521 156.615L148.156 173.198L164.271 134.073L184.854 141.604C187.531 142.885 212.958 155.885 221.365 187.073C215.073 194.812 207.896 201.792 199.958 207.823Z" fill="url(#paint2_linear_14_326)"/>
<defs>
<linearGradient id="paint0_linear_14_326" x1="124.921" y1="0" x2="124.921" y2="128.979" gradientUnits="userSpaceOnUse">
<stop stop-color="#BA45E3"/>
<stop offset="1" stop-color="#BA45E3" stop-opacity="0"/>
</linearGradient>
<linearGradient id="paint1_linear_14_326" x1="163.484" y1="203.698" x2="163.484" y2="215.698" gradientUnits="userSpaceOnUse">
<stop stop-color="#BA45E3"/>
<stop offset="1" stop-color="#BA45E3" stop-opacity="0"/>
</linearGradient>
<linearGradient id="paint2_linear_14_326" x1="125.01" y1="121.219" x2="125.01" y2="250" gradientUnits="userSpaceOnUse">
<stop stop-color="#BA45E3"/>
<stop offset="1" stop-color="#BA45E3" stop-opacity="0"/>
</linearGradient>
</defs>
</svg>
