<svg width="90" height="58" viewBox="0 0 90 58" fill="none" xmlns="http://www.w3.org/2000/svg">
<path d="M66.4785 13.5592C66.3787 13.3634 66.2463 13.1813 66.0781 13.0287C65.9094 12.8767 65.7204 12.7651 65.5234 12.6944L55.1688 8.97292C54.4474 8.71364 53.6748 8.5746 52.8706 8.58181C52.0673 8.59042 51.2983 8.74476 50.5805 9.01792L42.724 12.015C42.171 12.2265 41.622 12.4696 41.0806 12.7462C40.8997 12.8398 40.722 12.9412 40.5452 13.0405C39.9521 12.7192 39.3328 12.4362 38.6867 12.1953C36.6256 11.4249 34.5152 11.1649 32.4726 11.3395L27.1869 11.7932C26.9569 11.813 26.7247 11.884 26.5078 12.0115C26.2909 12.1393 26.1118 12.3117 25.971 12.511L14.0694 29.4541C13.8242 29.8019 13.6932 30.2447 13.7333 30.7132C13.7725 31.1817 13.9741 31.5925 14.2719 31.8878L19.4486 37.0183C19.1647 37.5381 18.9847 38.1217 18.9433 38.7462C18.8685 39.8686 19.2372 40.9521 19.9777 41.7976C20.7193 42.6428 21.7449 43.149 22.8681 43.2223C22.9279 43.2264 22.9887 43.2264 23.0495 43.2286C22.5891 44.7168 22.9658 46.4069 24.165 47.542C24.8827 48.2215 25.8029 48.6174 26.7808 48.6808C26.1508 50.2423 26.4915 52.1044 27.7789 53.3225C28.5641 54.0668 29.591 54.4758 30.6733 54.4758C31.8001 54.4758 32.8512 54.0357 33.6451 53.241C33.9402 55.148 35.5247 56.6687 37.5286 56.7997C37.6209 56.806 37.7153 56.81 37.8076 56.81C38.3196 56.81 38.8102 56.7133 39.2664 56.5432C40.0115 57.0399 40.8999 57.3136 41.8453 57.2753C43.0072 57.2268 44.0494 56.7142 44.8288 55.9123L41.9817 53.0715C41.9883 53.0058 42.0005 52.9428 42.0033 52.8748C42.0402 52.3169 41.9637 51.7769 41.7976 51.275L47.6246 57.0872C48.3599 57.3864 49.1601 57.5364 49.9934 57.5026C51.6611 57.4346 53.1466 56.6471 54.1986 55.4286L54.7819 54.7522C54.8359 54.6882 54.8773 54.6163 54.9132 54.5389L45.9415 45.592C45.7102 45.363 45.6917 44.9819 45.897 44.7419C46.1027 44.5034 46.459 44.4953 46.6886 44.7244L57.3585 55.3646C57.94 55.5685 58.5622 55.6678 59.2089 55.6413C60.675 55.5813 61.9831 54.8889 62.9079 53.8156L64.3168 52.1849C64.6399 51.8087 64.8325 51.301 64.8144 50.7494L55.4513 41.4146C55.2226 41.185 55.202 40.803 55.4071 40.565C55.6142 40.3261 55.9696 40.3181 56.1987 40.5471L65.606 49.9273C65.992 50.0303 66.3975 50.0808 66.8143 50.0641C68.0163 50.0156 69.0854 49.4485 69.8423 48.5696L70.2208 48.1314C70.978 47.2544 71.4245 46.0663 71.379 44.7743C71.3331 43.4828 70.8066 42.3353 69.9903 41.5208L67.4789 39.0169L68.1135 39.6487L74.9039 33.5169C75.1924 33.2576 75.4016 32.8946 75.4782 32.468C75.5543 32.0419 75.4854 31.6211 75.3086 31.2651L66.4785 13.5592ZM22.986 41.4067C22.3494 41.3652 21.767 41.0781 21.3453 40.5975C20.9241 40.1184 20.7162 39.5031 20.7585 38.865C20.8391 37.6128 21.8876 36.6321 23.1395 36.6321C23.1926 36.6321 23.2466 36.6335 23.2996 36.6367C23.9363 36.679 24.5187 36.9656 24.9404 37.4461C25.3616 37.9264 25.5695 38.5411 25.5285 39.1792C25.4412 40.4845 24.3067 41.4949 22.986 41.4067ZM27.0571 46.8742C26.4438 46.8742 25.8606 46.6428 25.4152 46.2211C24.4696 45.3275 24.4185 43.8214 25.296 42.8692C25.3415 42.8219 26.2739 41.8356 26.7212 41.3648L26.9561 41.115C27.4124 40.6336 28.0289 40.368 28.6921 40.368C29.3059 40.368 29.8895 40.6007 30.3341 41.0231C30.7979 41.4613 31.0639 42.0541 31.0811 42.693C31.0987 43.3297 30.8665 43.9369 30.4281 44.3995L29.7629 45.1028C29.6207 45.2522 29.4682 45.4138 29.3121 45.5785C29.2873 45.6064 29.2599 45.6342 29.2359 45.6604C29.1199 45.7824 29.0173 45.8903 28.9376 45.9736C28.8921 46.0227 28.8468 46.0717 28.8 46.1194C28.7882 46.1315 28.7793 46.1419 28.7784 46.1433C28.3258 46.6149 27.7133 46.8742 27.0571 46.8742ZM32.3928 51.9258C31.9388 52.3974 31.3281 52.6565 30.6724 52.6565C30.0586 52.6565 29.4741 52.4238 29.0299 52.0017C28.0849 51.108 28.0333 49.6023 28.9079 48.6547C28.9287 48.6322 29.4762 48.0526 30.0967 47.3978C30.0967 47.3973 30.0967 47.3973 30.0967 47.3973L30.5575 46.9109C31.3643 46.0568 31.6289 45.7792 31.718 45.6824C31.7284 45.6729 31.7405 45.6616 31.7491 45.6518L31.7509 45.6504C31.8287 45.5662 31.8741 45.5194 31.8755 45.518C32.3309 45.0365 32.9483 44.7706 33.612 44.7706C34.2259 44.7706 34.8082 45.0028 35.254 45.4249C35.7179 45.8641 35.9826 46.4572 36 47.0944C36.0176 47.7339 35.7854 48.3405 35.3452 48.8053C35.303 48.8505 32.4851 51.8277 32.3928 51.9258ZM40.1885 52.7565C40.102 54.061 38.9695 55.0726 37.6469 54.9858C36.3321 54.8984 35.332 53.7581 35.4189 52.4441C35.5011 51.1908 36.5456 50.2103 37.7993 50.2103C37.8524 50.2103 37.9064 50.2121 37.9594 50.2152C39.2743 50.3017 40.2741 51.442 40.1885 52.7565ZM66.8633 38.4029L48.263 19.8584L48.4727 19.3287C48.5812 19.0524 48.5673 18.7261 48.4084 18.4518C48.2492 18.1782 47.9827 18.0188 47.7037 18.004L46.3214 17.9212L44.8112 17.8318L44.6964 19.6219C44.695 19.6592 44.3959 23.7299 42.32 27.4078C40.192 31.182 37.3723 32.4833 36.9426 32.567C36.4623 32.6601 35.9589 32.7487 35.5403 32.7487C35.2528 32.7487 35.0315 32.7083 34.842 32.6215L34.1359 32.2943C33.8397 32.1571 33.6138 31.9052 33.4946 31.5838C33.3784 31.2738 33.3798 30.9349 33.4946 30.6258L40.5691 15.1L41.772 14.3075L42.2566 14.123H42.2557L51.1467 10.7318C51.7057 10.5189 52.2911 10.4073 52.8856 10.4018L52.9351 10.4013C53.512 10.4013 54.0835 10.5012 54.6307 10.6984L64.9856 14.4199L73.8169 32.1251L66.8633 38.4029Z" fill="url(#paint0_linear_13_262)"/>
<path d="M76.927 2.25122L69.9367 5.73643C68.9314 6.23899 68.1159 7.12476 67.7308 8.27489C67.346 9.42556 67.4654 10.623 67.9653 11.6306L77.1178 29.9793C77.6195 30.9841 78.5048 31.8009 79.6572 32.1843C80.8064 32.5694 82.0039 32.452 83.0111 31.9498L90 28.4628L76.927 2.25122ZM82.993 28.4737C82.0647 28.4737 81.3095 27.7209 81.3095 26.7912C81.3095 25.8606 82.0647 25.1059 82.993 25.1059C83.9232 25.1059 84.6782 25.8606 84.6782 26.7912C84.6782 27.7209 83.9232 28.4737 82.993 28.4737Z" fill="url(#paint1_linear_13_262)"/>
<path d="M25.0318 7.82171C24.8217 6.62605 24.1502 5.62884 23.2295 4.98179L16.8377 0.493042L0 24.4619L6.39088 28.9515C7.31074 29.5985 8.47758 29.8933 9.67271 29.6842C10.8687 29.4759 11.8651 28.8017 12.5109 27.8824L24.2977 11.1037C24.9453 10.1842 25.2401 9.01615 25.0318 7.82171ZM8.84303 24.1027C8.70398 25.0235 7.8467 25.6567 6.92648 25.5167C6.00627 25.3791 5.37346 24.5213 5.5125 23.6005C5.65119 22.6807 6.50918 22.0475 7.42764 22.1857C8.34838 22.3249 8.98066 23.1834 8.84303 24.1027Z" fill="url(#paint2_linear_13_262)"/>
<defs>
<linearGradient id="paint0_linear_13_262" x1="44.6175" y1="8.58154" x2="44.6175" y2="57.5073" gradientUnits="userSpaceOnUse">
<stop stop-color="#BA45E3"/>
<stop offset="1" stop-color="#7D0DA5"/>
</linearGradient>
<linearGradient id="paint1_linear_13_262" x1="78.7515" y1="2.25122" x2="78.7515" y2="32.4128" gradientUnits="userSpaceOnUse">
<stop stop-color="#BA45E3"/>
<stop offset="1" stop-color="#7D0DA5"/>
</linearGradient>
<linearGradient id="paint2_linear_13_262" x1="12.5489" y1="0.493042" x2="12.5489" y2="29.7507" gradientUnits="userSpaceOnUse">
<stop stop-color="#BA45E3"/>
<stop offset="1" stop-color="#7D0DA5"/>
</linearGradient>
</defs>
</svg>
