<svg width="95" height="75" viewBox="0 0 95 75" fill="none" xmlns="http://www.w3.org/2000/svg">
<g clip-path="url(#clip0_13_244)">
<path d="M24.3167 69.0408C34.1007 67.3411 41.0887 58.9509 41.3043 49.1639C41.1082 40.2618 35.345 32.4089 26.6724 29.8743C19.2402 27.7013 10.9161 29.8037 5.54529 35.3745C-0.85685 42.0139 -1.83137 52.4668 3.22709 60.1656C7.75894 67.0629 16.2108 70.4479 24.3167 69.0408ZM21.3596 29.56C31.9167 30.0064 39.789 38.9969 40.0137 49.2279C39.7774 59.9693 31.0442 69.3037 19.892 68.8317C9.48726 68.3905 1.23934 59.3909 1.23934 49.1639C1.23934 38.4185 10.3727 29.0943 21.3596 29.56Z" fill="url(#paint0_linear_13_244)"/>
<path d="M16.2947 46.6344C16.4857 46.9781 17.5545 49.1292 17.7661 48.8754C17.4073 49.305 14.3637 48.8754 13.708 48.8754C13.6654 48.8754 13.4731 48.9099 13.4731 48.992C13.4731 49.5244 13.4731 50.0566 13.4731 50.5878C13.4731 50.9739 14.1843 51.0892 14.4696 51.0892C15.8068 51.0892 17.1453 51.0892 18.4825 51.0892C18.5187 51.5087 18.5625 51.9731 18.4528 52.2899C18.1947 53.0378 18.8465 52.5991 17.6538 52.7684C16.3941 52.9479 14.9859 52.7684 13.7093 52.7684C13.6667 52.7684 13.4744 52.8029 13.4744 52.885C13.4744 53.4174 13.4744 53.9497 13.4744 54.4821C13.4744 54.8681 14.1856 54.9836 14.4709 54.9836C15.7991 54.9836 17.1259 54.9836 18.4541 54.9836C18.4541 56.6794 18.4541 58.3737 18.4541 60.0683C18.4541 60.3671 19.075 60.5712 19.4352 60.566C19.439 60.566 19.4467 60.5686 19.4505 60.5686C20.3386 60.5686 21.2279 60.5686 22.116 60.5686C22.1586 60.5686 22.3509 60.5339 22.3509 60.4518C22.3509 59.2962 21.7327 55.9558 22.3509 55.0605C22.5794 54.7295 26.0683 54.9823 27.128 54.9823C27.1706 54.9823 27.363 54.9476 27.363 54.8655C27.363 54.3333 27.363 53.801 27.363 53.2686C27.363 52.8825 26.6517 52.7671 26.3665 52.7671C25.0177 52.7671 23.67 52.7671 22.3212 52.7671C22.2852 52.3476 22.2412 51.8833 22.3509 51.5665C22.6103 50.8186 21.9612 51.2573 23.1577 51.0879C24.4264 50.9084 25.8425 51.0879 27.128 51.0879C27.1706 51.0879 27.363 51.0534 27.363 50.9713C27.363 50.4389 27.363 49.9079 27.363 49.3755C27.363 48.9894 26.6517 48.8741 26.3665 48.8741C25.4061 48.8741 24.4446 48.8741 23.4841 48.8741C25.3015 45.816 27.1176 42.7592 28.935 39.7013C29.1197 39.3895 28.0858 39.1997 27.9386 39.1997C26.9537 39.1997 25.9689 39.1997 24.9828 39.1997C24.8938 39.1997 24.7917 39.2344 24.7479 39.3165C24.0275 40.6697 23.306 42.0231 22.5859 43.3776C22.378 43.7687 21.1453 46.2933 20.5091 47.7131C19.2789 44.9707 17.8656 42.3104 16.5038 39.6295C16.336 39.2986 15.8442 39.1997 15.5086 39.1997C14.5018 39.1997 13.4951 39.1997 12.4896 39.1997C12.4173 39.1997 12.1849 39.26 12.2559 39.3883C13.6009 41.805 14.9472 44.2191 16.2947 46.6344ZM15.497 39.827C17.0213 42.8133 18.6078 45.7763 19.8984 48.8715C20.0379 49.2062 20.5788 49.3012 20.8937 49.3012C20.9259 49.3012 20.9581 49.3012 20.9905 49.3012C21.0678 49.3012 21.1944 49.2678 21.2255 49.1844C22.1637 46.7305 23.439 44.4705 24.6717 42.1552C24.9531 41.6279 25.4126 40.117 25.947 39.7604C26.1045 39.6552 26.7885 39.6884 27.4533 39.736C25.6204 42.8208 23.7862 45.9058 21.9534 48.992C21.7689 49.3037 22.8026 49.4936 22.9498 49.4936C24.0133 49.4936 25.0757 49.4936 26.1394 49.4936C26.1742 50.5749 26.2322 50.4723 24.7723 50.4723C23.6327 50.4723 22.4928 50.4723 21.3519 50.4723C21.3092 50.4723 21.1169 50.507 21.1169 50.5891C21.1169 51.3549 21.1169 52.1205 21.1169 52.8863C21.1169 53.2724 21.8282 53.3879 22.1135 53.3879C23.4546 53.3879 24.797 53.3879 26.138 53.3879C26.1729 54.4705 26.2309 54.3679 24.771 54.3679C23.6314 54.3679 22.4917 54.3679 21.3505 54.3679C21.3081 54.3679 21.1156 54.4024 21.1156 54.4845C21.1156 55.9726 21.1866 57.4771 21.1156 58.9639C21.0885 59.5231 21.166 59.831 21.0123 59.9541C20.8511 60.0837 20.247 60.0631 19.6817 60.0234C19.6817 58.3045 19.6817 56.587 19.6817 54.8681C19.6817 54.4821 18.9704 54.3666 18.6852 54.3666C17.3544 54.3666 16.0236 54.3666 14.6929 54.3666C14.658 53.2878 14.5948 53.3866 16.0495 53.3866C17.1814 53.3866 18.3147 53.3866 19.4467 53.3866C19.4894 53.3866 19.6817 53.352 19.6817 53.2699C19.6817 52.5041 19.6817 51.7383 19.6817 50.9713C19.6817 50.5852 18.9704 50.4697 18.6852 50.4697C17.3531 50.4697 16.0211 50.4697 14.689 50.4697C14.64 49.5371 14.5264 49.677 15.6532 49.491C16.5852 49.3384 17.69 49.491 18.6426 49.491C18.7148 49.491 18.9473 49.4307 18.8762 49.3024C17.6229 47.0552 16.3696 44.8091 15.1175 42.5618C14.88 42.1358 13.4124 40.2144 13.5402 39.7321C13.5106 39.845 14.6258 39.8386 15.497 39.827Z" fill="url(#paint1_linear_13_244)"/>
<path d="M69.8334 44.1545C69.8334 44.5022 69.5443 44.7845 69.1879 44.7845C68.8317 44.7845 68.5426 44.5024 68.5426 44.1545C68.5426 42.7632 69.1207 41.5004 70.0538 40.5907L70.097 40.5527C71.0288 39.6628 72.3034 39.1141 73.7045 39.1141C75.127 39.1141 76.4179 39.6785 77.3523 40.5907L77.3536 40.592L77.355 40.5933L77.3565 40.5948C78.2909 41.507 78.8679 42.767 78.8679 44.1545C78.8679 44.5022 78.5789 44.7845 78.2225 44.7845C77.8661 44.7845 77.577 44.5024 77.577 44.1545C77.577 43.1083 77.1441 42.1619 76.4463 41.482L76.4436 41.4793C75.7457 40.7982 74.7764 40.3754 73.706 40.3754C72.6532 40.3754 71.6973 40.7837 71.002 41.4466L70.9685 41.482C70.2663 42.1646 69.8334 43.1109 69.8334 44.1545ZM77.355 40.5948L77.351 41.4807C77.6038 41.2378 77.6051 40.8416 77.355 40.5948Z" fill="url(#paint2_linear_13_244)"/>
<path d="M67.8353 53.6052C67.8353 53.2573 68.1244 52.9752 68.4806 52.9752C68.837 52.9752 69.1261 53.2573 69.1261 53.6052C69.1261 54.8231 69.6317 55.9271 70.4465 56.7211L70.4492 56.7239C71.264 57.5192 72.3934 58.0127 73.6412 58.0127C74.8889 58.0127 76.0198 57.5192 76.8373 56.7239L76.8358 56.7224C77.6533 55.9245 78.1589 54.8218 78.1589 53.6052C78.1589 52.3882 77.6533 51.2858 76.8358 50.489L76.8062 50.4589C75.9916 49.6792 74.874 49.1987 73.6412 49.1987C73.2861 49.1987 72.9957 48.9166 72.9957 48.5687C72.9957 48.2208 73.2848 47.9387 73.6412 47.9387C75.2249 47.9387 76.6612 48.5595 77.7085 49.5624L77.7501 49.5992C78.8002 50.6244 79.4497 52.0419 79.4497 53.6079C79.4497 55.1724 78.7989 56.5913 77.7488 57.6166L77.7475 57.6152L77.7462 57.6166C76.6959 58.6418 75.2438 59.2769 73.6423 59.2769C72.0435 59.2769 70.5927 58.6429 69.5413 57.6166L69.54 57.6152L69.5387 57.6139L69.5373 57.6124C68.4861 56.5834 67.8353 55.1671 67.8353 53.6052Z" fill="url(#paint3_linear_13_244)"/>
<path d="M73.0563 36.346C73.0563 35.9981 73.3455 35.7158 73.7017 35.7158C74.0579 35.7158 74.347 35.9981 74.347 36.346V39.7429C74.347 40.0908 74.0579 40.3729 73.7017 40.3729C73.3466 40.3729 73.0563 40.0908 73.0563 39.7429V36.346Z" fill="url(#paint4_linear_13_244)"/>
<path d="M72.9972 58.6442C72.9972 58.2963 73.2863 58.014 73.6427 58.014C73.9989 58.014 74.288 58.2963 74.288 58.6442V61.5948C74.288 61.9426 73.9991 62.2247 73.6427 62.2247C73.2876 62.2247 72.9972 61.9426 72.9972 61.5948V58.6442Z" fill="url(#paint5_linear_13_244)"/>
<path d="M68.5426 44.1571C68.5426 43.8094 68.8317 43.5271 69.1879 43.5271C69.5443 43.5271 69.8334 43.8092 69.8334 44.1571C69.8334 45.2006 70.2676 46.1469 70.9668 46.8295L71.0004 46.865C71.6956 47.5279 72.6502 47.9361 73.7043 47.9361C74.0607 47.9361 74.3498 48.2184 74.3498 48.5661C74.3498 48.914 74.0607 49.1961 73.7043 49.1961C72.3033 49.1961 71.0286 48.6476 70.0968 47.7576L70.0538 47.7195C69.1194 46.8098 68.5426 45.5484 68.5426 44.1571Z" fill="url(#paint6_linear_13_244)"/>
<path d="M93.7092 49.1935V49.1922C93.7092 43.9746 91.5419 39.2493 88.0391 35.8288C84.5338 32.4069 79.6918 30.2896 74.3498 30.2896V30.2924H74.3483C69.0022 30.2924 64.1619 32.4082 60.6578 35.8288C57.1553 39.248 54.9865 43.9746 54.9865 49.1935C54.9865 54.4124 57.1538 59.1377 60.6579 62.5584C64.1606 65.979 69.0024 68.0948 74.3485 68.0948H74.3498C79.6946 68.0948 84.5352 65.979 88.0391 62.5584C91.5445 59.1364 93.712 54.4111 93.712 49.1948H93.7093L93.7092 49.1935ZM95 49.1922V49.1935V49.1948H94.9974C94.9987 54.7616 92.6873 59.8032 88.9521 63.4495C85.2155 67.0985 80.0523 69.3548 74.35 69.3548H74.3485C68.6462 69.3548 63.483 67.0985 59.745 63.4495C56.0071 59.8004 53.6957 54.7601 53.6957 49.1935C53.6957 43.6269 56.0071 38.5851 59.745 34.9376C63.4815 31.2885 68.6449 29.0322 74.3485 29.0322H74.35V29.0348C80.0523 29.0363 85.217 31.2913 88.9521 34.9376C92.6873 38.5851 95 43.6256 95 49.1922Z" fill="url(#paint7_linear_13_244)"/>
<mask id="mask0_13_244" style="mask-type:luminance" maskUnits="userSpaceOnUse" x="20" y="23" width="54" height="52">
<path d="M73.5217 23.3871H20.6522V75H73.5217V23.3871Z" fill="white"/>
</mask>
<g mask="url(#mask0_13_244)">
<path d="M47.0949 75.0155C61.6988 75.0155 73.5376 63.4581 73.5376 49.2013C73.5376 34.9445 61.6988 23.3871 47.0949 23.3871C32.491 23.3871 20.6522 34.9445 20.6522 49.2013C20.6522 63.4581 32.491 75.0155 47.0949 75.0155Z" fill="url(#paint8_linear_13_244)"/>
<path fill-rule="evenodd" clip-rule="evenodd" d="M57.913 46.0422C58.389 42.9606 55.9778 41.2882 52.6784 40.1732L53.7412 35.9922L51.1397 35.3572L50.0929 39.4454C49.4107 39.2751 48.697 39.1203 47.9831 38.95L49.0301 34.8308L46.3968 34.1959L45.3342 38.3924C44.763 38.253 44.2079 38.1291 43.6527 38.0053L40.052 37.1225L39.354 39.848C39.354 39.848 41.2891 40.2971 41.2574 40.3125C42.3203 40.5759 42.5106 41.2572 42.4789 41.7991L39.5443 53.2738C39.4015 53.5991 39.0685 54.0637 38.323 53.8933C38.3547 53.9243 36.4194 53.4132 36.4194 53.4132L35.1029 56.3554L38.4975 57.1762L40.3533 57.6408L39.2746 61.8838L41.9079 62.5187L42.9706 58.322C43.6845 58.508 44.3665 58.6783 45.0645 58.8487L44.0493 63.0296L46.6666 63.6646L47.7452 59.4216C52.2026 60.2424 55.5495 59.9171 56.9613 55.9683C58.1033 52.8093 56.9137 50.9666 54.5501 49.7741C56.2474 49.4025 57.5323 48.303 57.8813 46.0422H57.913ZM52.7577 46.0112C52.0122 48.8916 47.4597 47.4359 45.9845 47.0643L47.2852 41.954C48.7604 42.2948 53.5192 42.9606 52.7577 45.9958V46.0112ZM51.9329 54.2185C51.1397 57.4085 45.6672 55.6742 43.8907 55.2561L45.3183 49.6348C47.1107 50.0683 52.7894 50.9356 51.9329 54.2185Z" fill="white"/>
</g>
<path d="M47.1368 14.3109C39.8047 14.3109 33.9299 15.4549 29.5129 17.7428V21.5834H64.7609V17.7428C60.3438 15.4549 54.469 14.3109 47.1368 14.3109Z" fill="#BA45E3"/>
<path d="M79.4696 12.2982L47.0043 3.06458L14.5391 12.2982L19.9721 13.8507V16.2204C19.0885 16.3293 18.6469 16.7107 18.6469 17.3644C18.6469 17.6912 18.8235 17.9636 19.1769 18.1815L17.3219 20.6328H23.9474L22.0922 18.1815C22.4456 17.9636 22.6222 17.6912 22.6222 17.3644C22.6222 17.1463 22.4013 16.9014 21.9597 16.6289L21.2972 16.2204V14.2593L28.1877 16.1386V15.9752C32.6048 13.5783 38.9212 12.3799 47.1368 12.3799C55.3526 12.3799 61.6689 13.5783 66.0859 15.9752V16.1386L79.4696 12.2982Z" fill="#BA45E3"/>
</g>
<defs>
<linearGradient id="paint0_linear_13_244" x1="20.6522" y1="29.0322" x2="20.6522" y2="69.3548" gradientUnits="userSpaceOnUse">
<stop stop-color="#BA45E3"/>
<stop offset="1" stop-color="#701292"/>
</linearGradient>
<linearGradient id="paint1_linear_13_244" x1="20.5998" y1="39.1997" x2="20.5998" y2="60.5686" gradientUnits="userSpaceOnUse">
<stop stop-color="#BA45E3"/>
<stop offset="1" stop-color="#701292"/>
</linearGradient>
<linearGradient id="paint2_linear_13_244" x1="73.7052" y1="39.1141" x2="73.7052" y2="44.7845" gradientUnits="userSpaceOnUse">
<stop stop-color="#BA45E3"/>
<stop offset="1" stop-color="#701292"/>
</linearGradient>
<linearGradient id="paint3_linear_13_244" x1="73.6425" y1="47.9387" x2="73.6425" y2="59.2769" gradientUnits="userSpaceOnUse">
<stop stop-color="#BA45E3"/>
<stop offset="1" stop-color="#701292"/>
</linearGradient>
<linearGradient id="paint4_linear_13_244" x1="73.7017" y1="35.7158" x2="73.7017" y2="40.3729" gradientUnits="userSpaceOnUse">
<stop stop-color="#BA45E3"/>
<stop offset="1" stop-color="#701292"/>
</linearGradient>
<linearGradient id="paint5_linear_13_244" x1="73.6426" y1="58.014" x2="73.6426" y2="62.2247" gradientUnits="userSpaceOnUse">
<stop stop-color="#BA45E3"/>
<stop offset="1" stop-color="#701292"/>
</linearGradient>
<linearGradient id="paint6_linear_13_244" x1="71.4462" y1="43.5271" x2="71.4462" y2="49.1961" gradientUnits="userSpaceOnUse">
<stop stop-color="#BA45E3"/>
<stop offset="1" stop-color="#701292"/>
</linearGradient>
<linearGradient id="paint7_linear_13_244" x1="74.3479" y1="29.0322" x2="74.3479" y2="69.3548" gradientUnits="userSpaceOnUse">
<stop stop-color="#BA45E3"/>
<stop offset="1" stop-color="#701292"/>
</linearGradient>
<linearGradient id="paint8_linear_13_244" x1="47.0949" y1="23.3871" x2="47.0949" y2="75.0155" gradientUnits="userSpaceOnUse">
<stop stop-color="#BA45E3"/>
<stop offset="1" stop-color="#701292"/>
</linearGradient>
<clipPath id="clip0_13_244">
<rect width="95" height="75" fill="white"/>
</clipPath>
</defs>
</svg>
