<svg width="119" height="90" viewBox="0 0 119 90" fill="none" xmlns="http://www.w3.org/2000/svg">
<path d="M32.7067 68.4602C32.7696 68.4762 32.8342 68.4842 32.899 68.4841C33.0811 68.4839 33.2579 68.4209 33.401 68.3057C33.5442 68.1903 33.6455 68.0292 33.6888 67.848L39.1958 44.7512C39.2109 44.6867 39.2187 44.6206 39.2191 44.5542V20.7855C39.2191 20.5645 39.1334 20.3525 38.9809 20.1963C38.8285 20.04 38.6216 19.9523 38.4059 19.9523C25.164 19.9523 14.3919 30.9899 14.3919 44.5572C14.3711 50.1217 16.2119 55.5256 19.6074 59.8684C22.9286 64.1354 27.5344 67.1564 32.7067 68.4602ZM37.5913 21.6336V44.4571L32.3044 66.6311C27.6091 65.2802 23.4749 62.3907 20.534 58.4043C17.5931 54.418 16.0076 49.5543 16.0197 44.5572C16.0197 32.1875 25.623 22.0741 37.5913 21.6336Z" fill="url(#paint0_linear_12_69)"/>
<path d="M38.4059 69.162C44.3913 69.1681 50.162 66.8774 54.5814 62.7412C54.7408 62.5924 54.836 62.3847 54.846 62.1638C54.856 61.943 54.7799 61.7272 54.6346 61.5638C54.4892 61.4005 54.2866 61.3029 54.071 61.2928C53.8556 61.2825 53.645 61.3604 53.4856 61.5093C49.3661 65.3617 43.9889 67.495 38.4118 67.4896C37.8391 67.4896 37.2634 67.4672 36.6981 67.4224C36.5916 67.414 36.4845 67.4273 36.383 67.4613C36.2815 67.4954 36.1875 67.5496 36.1065 67.6209C36.0255 67.6922 35.9589 67.7792 35.9106 67.8767C35.8623 67.9743 35.8333 68.0808 35.8251 68.1899C35.817 68.299 35.83 68.4088 35.8632 68.5127C35.8964 68.6167 35.9493 68.713 36.0188 68.7961C36.0884 68.8791 36.1733 68.9473 36.2686 68.9968C36.3638 69.0462 36.4676 69.076 36.5742 69.0844C37.1746 69.1381 37.7924 69.162 38.4059 69.162Z" fill="url(#paint1_linear_12_69)"/>
<path d="M80.1823 10.212H73.479C73.2692 10.2211 73.0707 10.313 72.9254 10.4684C72.78 10.6238 72.6988 10.8307 72.6988 11.046C72.6988 11.2613 72.78 11.4683 72.9254 11.6236C73.0707 11.779 73.2692 11.8709 73.479 11.8799H80.1823C80.2921 11.8847 80.4017 11.8667 80.5045 11.8269C80.6073 11.7871 80.7012 11.7265 80.7805 11.6486C80.8598 11.5707 80.9229 11.4772 80.9661 11.3736C81.0092 11.2701 81.0314 11.1586 81.0314 11.046C81.0314 10.9334 81.0092 10.822 80.9661 10.7185C80.9229 10.6149 80.8598 10.5213 80.7805 10.4434C80.7012 10.3655 80.6073 10.3049 80.5045 10.2651C80.4017 10.2254 80.2921 10.2073 80.1823 10.212Z" fill="url(#paint2_linear_12_69)"/>
<path d="M70.2818 11.0453C70.2818 10.8242 70.1961 10.6123 70.0436 10.4561C69.8912 10.2998 69.6843 10.212 69.4686 10.212H67.513C67.3031 10.2211 67.1048 10.313 66.9594 10.4684C66.8141 10.6238 66.7328 10.8307 66.7328 11.0459C66.7328 11.2613 66.8141 11.4682 66.9594 11.6236C67.1048 11.779 67.3031 11.8708 67.513 11.8799H69.4774C69.6918 11.8775 69.8965 11.7885 70.0473 11.6322C70.1979 11.4759 70.2822 11.2649 70.2818 11.0453Z" fill="url(#paint3_linear_12_69)"/>
<path d="M80.1823 15.1412H75.9039C75.6882 15.1412 75.4814 15.229 75.3289 15.3852C75.1764 15.5415 75.0907 15.7534 75.0907 15.9745C75.0907 16.1954 75.1764 16.4073 75.3289 16.5636C75.4814 16.7198 75.6882 16.8076 75.9039 16.8076H80.1823C80.398 16.8076 80.6048 16.7198 80.7573 16.5636C80.9098 16.4073 80.9955 16.1954 80.9955 15.9745C80.9955 15.7534 80.9098 15.5415 80.7573 15.3852C80.6048 15.229 80.398 15.1412 80.1823 15.1412Z" fill="url(#paint4_linear_12_69)"/>
<path d="M73.0636 67.6523C73.0638 67.5427 73.043 67.4341 73.0021 67.3327C72.9612 67.2313 72.9012 67.1392 72.8255 67.0617C72.7498 66.9842 72.66 66.9226 72.561 66.8808C72.4621 66.8389 72.3561 66.8174 72.2491 66.8176H68.096C67.886 66.8267 67.6877 66.9186 67.5423 67.074C67.397 67.2294 67.3158 67.4363 67.3158 67.6516C67.3158 67.8669 67.397 68.0738 67.5423 68.2292C67.6877 68.3846 67.886 68.4764 68.096 68.4855H72.2491C72.4649 68.4855 72.6719 68.3979 72.8246 68.2416C72.9773 68.0854 73.0633 67.8734 73.0636 67.6523Z" fill="url(#paint5_linear_12_69)"/>
<path d="M80.1823 66.8178H75.5716C75.3618 66.8269 75.1633 66.9187 75.018 67.074C74.8726 67.2295 74.7914 67.4365 74.7914 67.6517C74.7914 67.8669 74.8726 68.0739 75.018 68.2293C75.1633 68.3847 75.3618 68.4766 75.5716 68.4857H80.1823C80.2921 68.4904 80.4017 68.4723 80.5045 68.4326C80.6073 68.3929 80.7012 68.3322 80.7805 68.2543C80.8598 68.1764 80.9229 68.0828 80.9661 67.9793C81.0092 67.8757 81.0313 67.7642 81.0313 67.6517C81.0313 67.5391 81.0092 67.4277 80.9661 67.3241C80.9229 67.2206 80.8598 67.1271 80.7805 67.0492C80.7012 66.9712 80.6073 66.9106 80.5045 66.8708C80.4017 66.831 80.2921 66.8129 80.1823 66.8178Z" fill="url(#paint6_linear_12_69)"/>
<path d="M80.1824 71.4362H72.6935C72.4779 71.4362 72.2711 71.5239 72.1185 71.6802C71.9661 71.8364 71.8804 72.0484 71.8804 72.2694C71.8804 72.4903 71.9661 72.7023 72.1185 72.8585C72.2711 73.0147 72.4779 73.1025 72.6935 73.1025H80.1824C80.398 73.1025 80.6048 73.0147 80.7574 72.8585C80.9098 72.7023 80.9955 72.4903 80.9955 72.2694C80.9955 72.0484 80.9098 71.8364 80.7574 71.6802C80.6048 71.5239 80.398 71.4362 80.1824 71.4362Z" fill="url(#paint7_linear_12_69)"/>
<path d="M33.5257 44.3003C33.075 43.6836 32.395 43.26 31.4856 43.0298C32.6437 42.4046 33.1525 41.3436 33.0129 39.8466C32.9661 39.3037 32.8244 38.8333 32.5872 38.4345C32.3499 38.0355 32.0296 37.7148 31.6253 37.4723C31.2212 37.2294 30.7817 37.0445 30.3078 36.917C29.8339 36.7896 29.2897 36.697 28.6757 36.6395V33.5305H26.8805V36.5531C26.5697 36.5531 26.0956 36.5613 25.4583 36.5777V33.5305H23.663V36.6395C23.4064 36.6477 23.0295 36.6519 22.5321 36.6519L20.0607 36.6395V38.6628H21.3546C21.9453 38.6628 22.2912 38.9425 22.3922 39.5017V43.0425C22.47 43.0425 22.5321 43.0467 22.5788 43.0549H22.3922V48.0143C22.3301 48.4336 22.1047 48.6435 21.7161 48.6435H20.4222L20.0608 50.9013H22.3924C22.5401 50.9013 22.7536 50.9033 23.0336 50.9071C23.3133 50.9112 23.5231 50.9133 23.6631 50.9133V54.0592H25.4587V50.9503C25.785 50.9587 26.2591 50.9627 26.8809 50.9627V54.0592H28.6761V50.9133C29.3135 50.8804 29.8789 50.819 30.3722 50.7283C30.8658 50.6375 31.338 50.4958 31.7887 50.3025C32.2393 50.1093 32.6162 49.8685 32.9193 49.5807C33.2224 49.2931 33.4729 48.9269 33.6714 48.4827C33.8693 48.0385 33.9957 47.5245 34.05 46.9403C34.1514 45.7974 33.9765 44.9173 33.5257 44.3003ZM25.4933 38.7981C25.5477 38.7981 25.7012 38.7961 25.9538 38.7919C26.2064 38.7877 26.4162 38.7836 26.5834 38.7795C26.7504 38.7754 26.9759 38.7856 27.2596 38.8103C27.5433 38.835 27.7822 38.868 27.9765 38.909C28.1707 38.9501 28.3846 39.018 28.6176 39.1126C28.851 39.2071 29.0373 39.3223 29.1771 39.4579C29.3171 39.5936 29.4356 39.7665 29.5326 39.9762C29.6299 40.1859 29.6784 40.4265 29.6784 40.6978C29.6784 40.9281 29.6436 41.1379 29.5737 41.3272C29.5039 41.5163 29.3988 41.6747 29.259 41.8022C29.1192 41.9297 28.9752 42.0408 28.8275 42.1354C28.6799 42.2298 28.4913 42.306 28.2621 42.3635C28.033 42.4211 27.8329 42.4664 27.6619 42.4992C27.491 42.5321 27.2773 42.5548 27.0207 42.5671C26.7642 42.5793 26.5699 42.5877 26.4378 42.5918C26.3056 42.5958 26.1249 42.5958 25.8956 42.5918C25.6662 42.5877 25.5323 42.5856 25.4934 42.5856L25.4933 38.7981ZM30.3956 47.1996C30.3216 47.3889 30.2266 47.5534 30.11 47.6933C29.9933 47.8329 29.8397 47.9565 29.6494 48.0632C29.4592 48.1702 29.2744 48.2565 29.0958 48.3223C28.9169 48.3884 28.7012 48.4456 28.4488 48.4951C28.1959 48.5445 27.9745 48.5793 27.7839 48.6C27.5936 48.6206 27.3664 48.637 27.1021 48.6494C26.8379 48.6615 26.6318 48.6677 26.4842 48.6677C26.3365 48.6677 26.15 48.6655 25.9246 48.6615C25.6991 48.6577 25.5554 48.6556 25.4932 48.6556V44.4855C25.5552 44.4855 25.7399 44.4815 26.0469 44.4731C26.3541 44.4647 26.6045 44.461 26.7989 44.461C26.9932 44.461 27.2614 44.4731 27.6035 44.4979C27.9453 44.5224 28.2328 44.5593 28.4662 44.6086C28.6993 44.6581 28.9536 44.7341 29.2297 44.8369C29.5056 44.9397 29.7291 45.0651 29.9002 45.2132C30.0712 45.3615 30.2149 45.5504 30.3314 45.7807C30.4482 46.0109 30.5065 46.2741 30.5065 46.5704C30.5064 46.8009 30.4696 47.0103 30.3956 47.1996Z" fill="url(#paint8_linear_12_69)"/>
<path d="M90.1995 56.8681C89.8302 56.4894 89.3433 56.2548 88.823 56.205C88.3027 56.1554 87.7819 56.2937 87.3506 56.596L85.6095 54.8132C85.5406 54.7428 85.4588 54.6868 85.3688 54.6487C85.2788 54.6106 85.1825 54.591 85.0851 54.591C84.9877 54.5911 84.8913 54.6109 84.8014 54.6491C84.7114 54.6873 84.6297 54.7434 84.5609 54.8139C84.4921 54.8845 84.4376 54.9683 84.4004 55.0605C84.3632 55.1527 84.344 55.2515 84.3441 55.3513C84.3442 55.4511 84.3634 55.5498 84.4007 55.642C84.4381 55.7341 84.4926 55.8178 84.5616 55.8883L86.2748 57.6412L84.5868 59.3722L81.5215 56.2313C83.8053 54.1411 85.6322 51.5802 86.8828 48.7162C88.1334 45.8521 88.7794 42.7497 88.7783 39.6121C88.7783 27.3029 79.0047 17.2936 66.9971 17.2936C54.9895 17.2936 45.2158 27.3084 45.2158 39.6121C45.2107 44.2899 46.641 48.8509 49.3044 52.6499C51.968 56.4491 55.7297 59.2939 60.0577 60.7821C60.1502 60.8147 60.248 60.8281 60.3456 60.8218C60.4431 60.8155 60.5385 60.7893 60.6262 60.7451C60.7139 60.7008 60.7922 60.6391 60.8566 60.5636C60.9209 60.4883 60.97 60.4005 61.0012 60.3055C61.0323 60.2105 61.0447 60.1102 61.0378 60.0102C61.0309 59.9103 61.0047 59.8128 60.9609 59.7232C60.9169 59.6336 60.8562 59.5539 60.7822 59.4885C60.708 59.4232 60.6221 59.3734 60.5292 59.3423C56.4935 57.9566 52.9852 55.3056 50.5011 51.7642C48.0171 48.2228 46.6828 43.9706 46.6875 39.6094C46.6875 28.1385 55.7957 18.8055 66.9905 18.8055C78.1853 18.8055 87.2949 28.1385 87.2949 39.6094C87.2949 51.0804 78.1866 60.4173 66.9905 60.4173C66.6 60.4173 66.2069 60.4051 65.8151 60.382L66.4446 59.2933C66.5357 59.1202 66.5579 58.9176 66.5066 58.7281C66.4551 58.5386 66.334 58.3769 66.1687 58.277C66.0034 58.177 65.8068 58.1464 65.62 58.1918C65.4332 58.2372 65.2708 58.3549 65.1669 58.5203L62.9716 62.3307C62.5477 63.0462 61.9517 63.638 61.2405 64.0495C60.5294 64.461 59.7269 64.6785 58.9102 64.681H49.43C49.2387 64.6893 49.0579 64.773 48.9254 64.9146C48.7929 65.0563 48.719 65.2449 48.719 65.4411C48.719 65.6372 48.7929 65.8258 48.9254 65.9675C49.0579 66.1091 49.2387 66.1928 49.43 66.2011H58.9102C59.9836 66.1977 61.0383 65.9114 61.9727 65.3696C62.907 64.8279 63.6896 64.0491 64.2453 63.1078L64.9757 61.8422C65.6397 61.9048 66.3184 61.9374 66.9905 61.9374C71.8446 61.9431 76.5603 60.2792 80.3819 57.2124L83.5695 60.4786C83.2753 60.9205 83.1408 61.4539 83.1893 61.9865C83.2378 62.5192 83.4662 63.0178 83.8351 63.3963L98.2203 78.1374C99.0647 79.0037 100.21 79.4907 101.405 79.4913C102.6 79.492 103.746 79.0062 104.592 78.1408C105.437 77.2756 105.912 76.1015 105.913 74.8771C105.914 73.6527 105.44 72.4783 104.595 71.6121L90.1995 56.8681ZM103.539 77.0624C102.972 77.6415 102.204 77.9665 101.403 77.9665C100.603 77.9665 99.8353 77.6415 99.2677 77.0624L84.879 62.3185C84.7374 62.1729 84.6579 61.9757 84.6579 61.7701C84.6579 61.5645 84.7374 61.3673 84.879 61.2216L88.0797 57.9419C88.2218 57.7965 88.4143 57.7148 88.615 57.7148C88.8157 57.7148 89.0083 57.7965 89.1503 57.9419L103.539 72.6858C103.82 72.9731 104.042 73.3143 104.194 73.6898C104.346 74.0652 104.423 74.4677 104.423 74.874C104.423 75.2805 104.346 75.6829 104.194 76.0583C104.042 76.4338 103.82 76.775 103.539 77.0624Z" fill="url(#paint9_linear_12_69)"/>
<path d="M56.2207 26.9912C56.1357 27.0674 56.052 27.145 55.9683 27.2226C55.8233 27.3584 55.7368 27.5478 55.7279 27.7491C55.7191 27.9503 55.7886 28.147 55.9212 28.2956C56.0538 28.4443 56.2386 28.533 56.4351 28.542C56.6314 28.5511 56.8233 28.4799 56.9684 28.3439L57.1982 28.1344C57.3462 28.0015 57.4366 27.814 57.4495 27.6129C57.4625 27.4118 57.3969 27.2136 57.2672 27.062C57.1377 26.9104 56.9545 26.8178 56.7583 26.8045C56.562 26.7912 56.3687 26.8584 56.2207 26.9912Z" fill="url(#paint10_linear_12_69)"/>
<path d="M53.7916 31.018C53.6208 30.9181 53.4184 30.8916 53.2287 30.9445C53.039 30.9973 52.8775 31.125 52.7795 31.2997C50.8509 34.7649 50.1924 38.8216 50.9226 42.7399C51.6527 46.6583 53.7235 50.1809 56.7624 52.6742C59.8014 55.1675 63.6089 56.4678 67.5 56.341C71.3911 56.2142 75.1103 54.6688 77.9884 51.9826C80.8666 49.2964 82.7148 45.646 83.2006 41.688C83.6862 37.7302 82.7774 33.7245 80.6379 30.3919C78.4983 27.0593 75.2682 24.6184 71.5288 23.5086C67.7895 22.3987 63.7864 22.6926 60.2396 24.3374C60.1509 24.3786 60.071 24.4373 60.0045 24.5101C59.9379 24.583 59.886 24.6686 59.8517 24.7619C59.8174 24.8553 59.8015 24.9547 59.8047 25.0544C59.8079 25.1542 59.8302 25.2522 59.8704 25.3431C59.9106 25.4339 59.9679 25.5159 60.039 25.584C60.11 25.6523 60.1935 25.7054 60.2846 25.7405C60.3758 25.7757 60.4728 25.7921 60.5701 25.7888C60.6674 25.7855 60.7632 25.7626 60.8519 25.7215C62.7789 24.8213 64.8727 24.3571 66.9905 24.3605C70.2614 24.3605 73.441 25.4652 76.0375 27.5037C78.6339 29.5421 80.5022 32.4006 81.3532 35.6368C82.2043 38.8729 81.9906 42.3062 80.7453 45.4054C79.5 48.5045 77.2925 51.0967 74.4644 52.7808C71.6364 54.4648 68.3456 55.1467 65.1011 54.721C61.8568 54.2953 58.8397 52.7857 56.5171 50.4259C54.1944 48.066 52.6956 44.9875 52.2526 41.6668C51.8096 38.3461 52.4471 34.9683 54.0665 32.0564C54.115 31.9697 54.1463 31.8741 54.1588 31.775C54.1712 31.6759 54.1645 31.5752 54.139 31.4788C54.1134 31.3825 54.0695 31.2921 54.0099 31.213C53.9503 31.1339 53.8762 31.0677 53.7916 31.018Z" fill="url(#paint11_linear_12_69)"/>
<path d="M49.1657 74.8985H57.5714C57.7627 74.8902 57.9435 74.8066 58.076 74.6649C58.2085 74.5234 58.2824 74.3347 58.2824 74.1385C58.2824 73.9423 58.2085 73.7537 58.076 73.6121C57.9435 73.4705 57.7627 73.3867 57.5714 73.3784H49.1657C48.9744 73.3867 48.7937 73.4705 48.6612 73.6121C48.5287 73.7537 48.4547 73.9423 48.4547 74.1385C48.4547 74.3347 48.5287 74.5234 48.6612 74.6649C48.7937 74.8066 48.9744 74.8902 49.1657 74.8985Z" fill="url(#paint12_linear_12_69)"/>
<path d="M60.1785 70.4062C60.3751 70.4062 60.5635 70.3262 60.7026 70.1838C60.8416 70.0414 60.9196 69.8482 60.9196 69.6468C60.9196 69.4454 60.8416 69.2523 60.7026 69.1098C60.5635 68.9675 60.3751 68.8875 60.1785 68.8875H56.0321C55.8356 68.8875 55.647 68.9675 55.5081 69.1098C55.3691 69.2523 55.291 69.4454 55.291 69.6468C55.291 69.8482 55.3691 70.0414 55.5081 70.1838C55.647 70.3262 55.8356 70.4062 56.0321 70.4062H60.1785Z" fill="url(#paint13_linear_12_69)"/>
<path d="M49.1657 70.4062H53.3758C53.5724 70.4062 53.7609 70.3262 53.8999 70.1838C54.0388 70.0414 54.1169 69.8482 54.1169 69.6468C54.1169 69.4454 54.0388 69.2523 53.8999 69.1098C53.7609 68.9675 53.5724 68.8875 53.3758 68.8875H49.1657C48.9692 68.8875 48.7806 68.9675 48.6417 69.1098C48.5027 69.2523 48.4246 69.4454 48.4246 69.6468C48.4246 69.8482 48.5027 70.0414 48.6417 70.1838C48.7806 70.3262 48.9692 70.4062 49.1657 70.4062Z" fill="url(#paint14_linear_12_69)"/>
<path d="M75.5556 48.3449C75.7521 48.3449 75.9406 48.2649 76.0796 48.1225C76.2186 47.98 76.2967 47.787 76.2967 47.5855V31.1038C76.2967 30.9024 76.2186 30.7092 76.0796 30.5669C75.9406 30.4244 75.7521 30.3445 75.5556 30.3445H72.1025C71.9059 30.3445 71.7174 30.4244 71.5784 30.5669C71.4394 30.7092 71.3614 30.9024 71.3614 31.1038V47.5855C71.3614 47.787 71.4394 47.98 71.5784 48.1225C71.7174 48.2649 71.9059 48.3449 72.1025 48.3449H75.5556ZM72.8382 31.8618H74.8145V46.8316H72.8382V31.8618Z" fill="url(#paint15_linear_12_69)"/>
<path d="M68.4581 48.3449C68.6546 48.3449 68.8431 48.2648 68.9821 48.1224C69.1211 47.98 69.1992 47.7869 69.1992 47.5855V36.139C69.1994 36.0392 69.1803 35.9404 69.1432 35.848C69.1059 35.7557 69.0514 35.6719 68.9826 35.6012C68.9137 35.5305 68.832 35.4745 68.742 35.4363C68.6519 35.398 68.5555 35.3783 68.4581 35.3783H65.0049C64.9075 35.3783 64.811 35.398 64.721 35.4363C64.631 35.4745 64.5493 35.5305 64.4804 35.6012C64.4116 35.6719 64.357 35.7557 64.3199 35.848C64.2827 35.9404 64.2637 36.0392 64.2639 36.139V47.5868C64.2639 47.7882 64.3419 47.9814 64.4809 48.1238C64.6198 48.2662 64.8083 48.3462 65.0049 48.3462L68.4581 48.3449ZM65.742 36.8971H67.7196V46.8315H65.742V36.8971Z" fill="url(#paint16_linear_12_69)"/>
<path d="M57.161 47.5856C57.161 47.787 57.2391 47.9801 57.3781 48.1225C57.517 48.2649 57.7056 48.345 57.9021 48.345H61.3553C61.5518 48.345 61.7403 48.2649 61.8792 48.1225C62.0183 47.9801 62.0964 47.787 62.0964 47.5856V40.5456C62.0964 40.3443 62.0183 40.1511 61.8792 40.0087C61.7403 39.8663 61.5518 39.7863 61.3553 39.7863H57.9021C57.7056 39.7863 57.517 39.8663 57.3781 40.0087C57.2391 40.1511 57.161 40.3443 57.161 40.5456V47.5856ZM58.6445 41.3104H60.6195V46.8316H58.6445V41.3104Z" fill="url(#paint17_linear_12_69)"/>
<defs>
<linearGradient id="paint0_linear_12_69" x1="26.8054" y1="19.9523" x2="26.8054" y2="68.4841" gradientUnits="userSpaceOnUse">
<stop stop-color="#BA45E3"/>
<stop offset="1" stop-color="#7D0DA5"/>
</linearGradient>
<linearGradient id="paint1_linear_12_69" x1="45.3348" y1="61.2919" x2="45.3348" y2="69.162" gradientUnits="userSpaceOnUse">
<stop stop-color="#BA45E3"/>
<stop offset="1" stop-color="#7D0DA5"/>
</linearGradient>
<linearGradient id="paint2_linear_12_69" x1="76.8651" y1="10.2113" x2="76.8651" y2="11.8807" gradientUnits="userSpaceOnUse">
<stop stop-color="#BA45E3"/>
<stop offset="1" stop-color="#7D0DA5"/>
</linearGradient>
<linearGradient id="paint3_linear_12_69" x1="68.5073" y1="10.212" x2="68.5073" y2="11.8799" gradientUnits="userSpaceOnUse">
<stop stop-color="#BA45E3"/>
<stop offset="1" stop-color="#7D0DA5"/>
</linearGradient>
<linearGradient id="paint4_linear_12_69" x1="78.0431" y1="15.1412" x2="78.0431" y2="16.8076" gradientUnits="userSpaceOnUse">
<stop stop-color="#BA45E3"/>
<stop offset="1" stop-color="#7D0DA5"/>
</linearGradient>
<linearGradient id="paint5_linear_12_69" x1="70.1897" y1="66.8176" x2="70.1897" y2="68.4855" gradientUnits="userSpaceOnUse">
<stop stop-color="#BA45E3"/>
<stop offset="1" stop-color="#7D0DA5"/>
</linearGradient>
<linearGradient id="paint6_linear_12_69" x1="77.9114" y1="66.817" x2="77.9114" y2="68.4864" gradientUnits="userSpaceOnUse">
<stop stop-color="#BA45E3"/>
<stop offset="1" stop-color="#7D0DA5"/>
</linearGradient>
<linearGradient id="paint7_linear_12_69" x1="76.438" y1="71.4362" x2="76.438" y2="73.1025" gradientUnits="userSpaceOnUse">
<stop stop-color="#BA45E3"/>
<stop offset="1" stop-color="#7D0DA5"/>
</linearGradient>
<linearGradient id="paint8_linear_12_69" x1="27.0693" y1="33.5305" x2="27.0693" y2="54.0592" gradientUnits="userSpaceOnUse">
<stop stop-color="#BA45E3"/>
<stop offset="1" stop-color="#7D0DA5"/>
</linearGradient>
<linearGradient id="paint9_linear_12_69" x1="75.5643" y1="17.2936" x2="75.5643" y2="79.4913" gradientUnits="userSpaceOnUse">
<stop stop-color="#BA45E3"/>
<stop offset="1" stop-color="#7D0DA5"/>
</linearGradient>
<linearGradient id="paint10_linear_12_69" x1="56.5891" y1="26.8029" x2="56.5891" y2="28.5428" gradientUnits="userSpaceOnUse">
<stop stop-color="#BA45E3"/>
<stop offset="1" stop-color="#7D0DA5"/>
</linearGradient>
<linearGradient id="paint11_linear_12_69" x1="66.9804" y1="22.8472" x2="66.9804" y2="56.3495" gradientUnits="userSpaceOnUse">
<stop stop-color="#BA45E3"/>
<stop offset="1" stop-color="#7D0DA5"/>
</linearGradient>
<linearGradient id="paint12_linear_12_69" x1="53.3686" y1="73.3784" x2="53.3686" y2="74.8985" gradientUnits="userSpaceOnUse">
<stop stop-color="#BA45E3"/>
<stop offset="1" stop-color="#7D0DA5"/>
</linearGradient>
<linearGradient id="paint13_linear_12_69" x1="58.1053" y1="68.8875" x2="58.1053" y2="70.4062" gradientUnits="userSpaceOnUse">
<stop stop-color="#BA45E3"/>
<stop offset="1" stop-color="#7D0DA5"/>
</linearGradient>
<linearGradient id="paint14_linear_12_69" x1="51.2708" y1="68.8875" x2="51.2708" y2="70.4062" gradientUnits="userSpaceOnUse">
<stop stop-color="#BA45E3"/>
<stop offset="1" stop-color="#7D0DA5"/>
</linearGradient>
<linearGradient id="paint15_linear_12_69" x1="73.829" y1="30.3445" x2="73.829" y2="48.3449" gradientUnits="userSpaceOnUse">
<stop stop-color="#BA45E3"/>
<stop offset="1" stop-color="#7D0DA5"/>
</linearGradient>
<linearGradient id="paint16_linear_12_69" x1="66.7315" y1="35.3783" x2="66.7315" y2="48.3462" gradientUnits="userSpaceOnUse">
<stop stop-color="#BA45E3"/>
<stop offset="1" stop-color="#7D0DA5"/>
</linearGradient>
<linearGradient id="paint17_linear_12_69" x1="59.6287" y1="39.7863" x2="59.6287" y2="48.345" gradientUnits="userSpaceOnUse">
<stop stop-color="#BA45E3"/>
<stop offset="1" stop-color="#7D0DA5"/>
</linearGradient>
</defs>
</svg>
