<svg width="95" height="95" viewBox="0 0 95 95" fill="none" xmlns="http://www.w3.org/2000/svg">
<g filter="url(#filter0_f_21_99)">
<path d="M82.5536 69.4861C70.1611 89.1094 44.2236 94.9358 24.627 82.5561C5.01309 70.2122 -0.827718 44.2169 11.5567 24.6518C23.9351 5.02934 49.8941 -0.820403 69.4782 11.5552C89.0873 23.9556 94.9495 49.886 82.5487 69.5011L82.5536 69.4861ZM66.5189 47.183C69.0556 42.16 65.9602 37.9713 61.0658 34.2219L65.2259 27.6592L61.213 25.1081L57.158 31.5452C56.1126 30.8679 55.0066 30.2149 53.8997 29.5477L57.9811 23.0474L53.9509 20.5071L49.7817 27.1056C48.9077 26.5706 48.0602 26.0472 47.2078 25.5222L41.683 22.0235L38.9642 26.3255C38.9642 26.3255 41.9688 28.1369 41.8758 28.1504C43.5076 29.1957 43.4486 30.4535 43.089 31.3742L31.6763 49.4303C31.2482 49.897 30.4237 50.5176 29.2959 49.7965C29.3152 49.872 26.3635 47.9508 26.3635 47.9508L22.5146 52.2332L27.7333 55.5284L30.5561 57.3544L26.3432 64.0435L30.3775 66.5713L34.5641 59.962C35.6462 60.6956 36.69 61.3696 37.7412 62.0212L33.6924 68.6152L37.7152 71.1696L41.9265 64.4855C48.9111 68.3616 54.7075 69.6581 59.3018 63.6895C62.9948 58.8745 62.026 55.0873 58.7724 51.7365C61.8171 52.0212 64.5955 50.8521 66.474 47.1681L66.5189 47.183ZM51.8688 57.9068C48.7309 62.9162 40.5543 56.932 37.8272 55.2095L43.4112 46.3719C46.1325 48.1201 55.1516 52.7267 51.8688 57.9068ZM57.8944 44.2606C55.0193 48.8095 48.2385 43.7898 45.9647 42.3443L51.0484 34.2924C53.3171 35.7031 60.8976 39.4748 57.8994 44.2457L57.8944 44.2606Z" fill="url(#paint0_linear_21_99)"/>
</g>
<defs>
<filter id="filter0_f_21_99" x="0.058609" y="0.0664062" width="93.9942" height="93.9883" filterUnits="userSpaceOnUse" color-interpolation-filters="sRGB">
<feFlood flood-opacity="0" result="BackgroundImageFix"/>
<feBlend mode="normal" in="SourceGraphic" in2="BackgroundImageFix" result="shape"/>
<feGaussianBlur stdDeviation="2.5" result="effect1_foregroundBlur_21_99"/>
</filter>
<linearGradient id="paint0_linear_21_99" x1="60.2388" y1="7.18021" x2="39.268" y2="71.7937" gradientUnits="userSpaceOnUse">
<stop stop-color="#BA45E3"/>
<stop offset="1" stop-color="#701292"/>
</linearGradient>
</defs>
</svg>
