<svg width="99" height="99" viewBox="0 0 99 99" fill="none" xmlns="http://www.w3.org/2000/svg">
<g filter="url(#filter0_f_22_145)">
<path d="M86.4129 29.6558C97.2822 50.162 89.4476 75.5651 68.9658 86.4177C48.5063 97.3031 23.046 89.4522 12.223 68.9819C1.34738 48.4883 9.17247 23.055 29.6445 12.2112C50.1506 1.35807 75.5653 9.15812 86.4234 29.6675L86.4129 29.6558ZM59.0901 32.4857C55.9921 27.7881 50.8189 28.3924 45.1329 30.7762L41.5056 23.9046L37.2975 26.119L40.8681 32.8369C39.7608 33.4075 38.6444 34.0427 37.5153 34.6716L33.9031 27.8993L29.6958 30.1341L33.3496 37.0313C32.451 37.5239 31.5757 37.9992 30.6964 38.4779L24.9147 41.5333L27.2965 46.0306C27.2965 46.0306 30.3617 44.3236 30.3272 44.411C32.0452 43.5145 33.1074 44.1908 33.7276 44.9604L43.7239 63.8375C43.9162 64.441 44.0449 65.4648 42.8587 66.0851C42.9338 66.1059 39.7997 67.7125 39.7997 67.7125L41.6029 73.1807L47.056 70.2898L50.0434 68.7478L53.7542 75.728L57.9527 73.4834L54.2981 66.5657C55.4725 65.9913 56.5761 65.4205 57.664 64.8321L61.3738 71.6227L65.5897 69.4013L61.8825 62.425C68.7172 58.2905 72.723 53.9049 69.8269 46.9519C67.4841 41.3542 63.7162 40.3128 59.1916 41.4708C60.9517 38.9703 61.3181 35.9782 59.0549 32.5173L59.0901 32.4857ZM61.1149 50.528C63.9024 55.7406 54.6458 59.8618 51.7959 61.3722L46.9021 52.1345C49.7716 50.6419 58.2513 45.1049 61.1149 50.528ZM52.268 38.5173C54.7864 43.2729 47.0605 46.6623 44.6761 47.917L40.2156 39.5039C42.5672 38.2363 49.6075 33.5327 52.2574 38.5055L52.268 38.5173Z" fill="url(#paint0_linear_22_145)"/>
</g>
<defs>
<filter id="filter0_f_22_145" x="0.318909" y="0.317383" width="97.9915" height="98.0054" filterUnits="userSpaceOnUse" color-interpolation-filters="sRGB">
<feFlood flood-opacity="0" result="BackgroundImageFix"/>
<feBlend mode="normal" in="SourceGraphic" in2="BackgroundImageFix" result="shape"/>
<feGaussianBlur stdDeviation="3.5" result="effect1_foregroundBlur_22_145"/>
</filter>
<linearGradient id="paint0_linear_22_145" x1="21.2562" y1="18.0545" x2="66.9029" y2="68.3641" gradientUnits="userSpaceOnUse">
<stop stop-color="#BA45E3"/>
<stop offset="1" stop-color="#701292"/>
</linearGradient>
</defs>
</svg>
