<svg width="127" height="127" viewBox="0 0 127 127" fill="none" xmlns="http://www.w3.org/2000/svg">
<g filter="url(#filter0_f_21_101)">
<path d="M98.3547 110.883C72.2338 130.089 35.5282 124.446 16.35 98.3559C-2.86902 72.303 2.78444 35.5149 28.8651 16.38C54.9672 -2.83252 91.7127 2.79086 110.877 28.8697C130.061 54.9936 124.468 91.7083 98.3406 110.9L98.3547 110.883ZM88.8674 73.7008C94.7272 68.4607 92.8361 61.4347 88.3813 54.0634L97.1374 47.648L93.2184 42.2845L84.6631 48.59C83.6485 47.1762 82.5429 45.763 81.4433 44.331L90.0652 37.9568L86.118 32.5985L77.332 39.0557C76.4678 37.9144 75.6324 36.8017 74.7913 35.6843L69.3888 28.3176L63.6598 32.5271C63.6598 32.5271 66.6444 36.4147 66.5166 36.3849C68.1062 38.5762 67.3883 40.1821 66.4512 41.1963L42.4036 58.8637C41.609 59.2526 40.2202 59.6394 39.121 58.1267C39.1076 58.2347 36.2476 54.2314 36.2476 54.2314L29.0587 57.8394L34.1668 64.7855L36.9075 68.5993L28.0184 75.1521L31.9772 80.4963L40.7915 74.0338C41.825 75.5397 42.839 76.9483 43.8742 78.3316L35.2469 84.8444L39.1772 90.2173L48.0617 83.6702C55.1705 92.2719 62.0488 96.9127 71.0667 91.4914C78.3244 87.1112 78.9947 81.6914 76.4709 75.6748C80.2858 77.597 84.4955 77.4926 88.8166 73.6586L88.8674 73.7008ZM64.3465 80.1813C57.7117 85.0974 50.1271 73.1462 47.4581 69.5158L59.2257 60.8674C61.874 64.5283 71.2567 75.1172 64.3465 80.1813ZM79.1395 65.5037C73.0813 69.9548 66.8205 59.9695 64.5998 56.9304L75.3162 49.049C77.548 52.0401 85.4851 60.8098 79.1536 65.4868L79.1395 65.5037Z" fill="url(#paint0_linear_21_101)"/>
</g>
<defs>
<filter id="filter0_f_21_101" x="0.941422" y="0.96582" width="125.335" height="125.319" filterUnits="userSpaceOnUse" color-interpolation-filters="sRGB">
<feFlood flood-opacity="0" result="BackgroundImageFix"/>
<feBlend mode="normal" in="SourceGraphic" in2="BackgroundImageFix" result="shape"/>
<feGaussianBlur stdDeviation="2" result="effect1_foregroundBlur_21_101"/>
</filter>
<linearGradient id="paint0_linear_21_101" x1="50.8581" y1="30.9939" x2="94.2759" y2="131.911" gradientUnits="userSpaceOnUse">
<stop stop-color="#BA45E3"/>
<stop offset="1" stop-color="#BA45E3" stop-opacity="0"/>
</linearGradient>
</defs>
</svg>
