<svg width="421" height="423" viewBox="0 0 421 423" fill="none" xmlns="http://www.w3.org/2000/svg">
<g clip-path="url(#clip0_45_2)">
<path fill-rule="evenodd" clip-rule="evenodd" d="M354.842 265.579C360.765 249.043 364 231.175 364 212.5C364 133.799 306.543 69.4377 232.603 58.6055L209.819 18.44L186.003 58.976C113.22 70.8324 57 134.65 57 212.5C57 230.77 60.0965 248.268 65.7768 264.502L39.4589 310.897L91.3069 310.503C116.914 342.393 154.717 363.739 197.282 367.429L175.522 422.08C75.9136 405.262 0 317.831 0 212.5C0 95.1395 94.2441 0 210.5 0C326.756 0 421 95.1395 421 212.5C421 318.822 343.651 406.906 242.66 422.536L220.807 367.654C264.554 364.704 303.498 343.122 329.687 310.51L380.548 310.897L354.842 265.579Z" fill="white"/>
<path fill-rule="evenodd" clip-rule="evenodd" d="M209.5 60L345.033 291.75H341.771L238.878 258.62L230.838 225.801C230.564 224.683 228.928 224.838 228.868 225.988L227.27 256.782L209 292L191.071 257.441L189.439 225.988C189.379 224.838 187.743 224.683 187.469 225.801L179.456 258.513L76.2294 291.75H73.967L209.5 60ZM207.931 92.9712C209.089 91.8674 210.911 91.8674 212.069 92.9712L226.39 106.613C226.984 107.18 227.321 107.965 227.321 108.785V139.215C227.321 140.035 226.984 140.82 226.39 141.387L217.572 149.787L210.491 96.4651C210.338 95.3073 208.662 95.3073 208.509 96.4651L201.54 148.941L193.61 141.387C193.016 140.82 192.68 140.035 192.68 139.215V108.785C192.68 107.965 193.016 107.18 193.61 106.613L207.931 92.9712Z" fill="#D00202"/>
</g>
<defs>
<clipPath id="clip0_45_2">
<rect width="421" height="423" fill="white"/>
</clipPath>
</defs>
</svg>
